<?xml version="1.0" encoding="UTF-8" standalone="no"?>
<!DOCTYPE svg PUBLIC "-//W3C//DTD SVG 1.1//EN"
"http://www.w3.org/Graphics/SVG/1.1/DTD/svg11.dtd">
<svg viewBox="0 0 909 1286" version="1.1" xmlns="http://www.w3.org/2000/svg" xmlns:xlink="http://www.w3.org/1999/xlink">
<defs>
</defs>
<image preserveAspectRatio="none" x="0" y="0" width="910" height="1286" xlink:href="img/1.png" />
<g fill="#000000" >
<use xlink:href="#f0_g9" transform="matrix(20,0,0,20,371.7,138.6)" />
<use xlink:href="#f0_gu" transform="matrix(20,0,0,20,395.5,138.6)" />
<use xlink:href="#f0_h2" transform="matrix(20,0,0,20,409.4,138.6)" />
<use xlink:href="#f0_gr" transform="matrix(20,0,0,20,426.6,138.6)" />
<use xlink:href="#f0_gt" transform="matrix(20,0,0,20,441.9,138.6)" />
<use xlink:href="#f0_h2" transform="matrix(20,0,0,20,458.4,138.6)" />
<use xlink:href="#f0_gw" transform="matrix(20,0,0,20,475.6,138.6)" />
<use xlink:href="#f0_h4" transform="matrix(20,0,0,20,489.2,138.6)" />
<use xlink:href="#f0_gz" transform="matrix(20,0,0,20,506.8,138.6)" />
<use xlink:href="#f0_gw" transform="matrix(20,0,0,20,524.5,138.6)" />
<use xlink:href="#f1_l" transform="matrix(14,0,0,14,76.6,182.3)" />
<use xlink:href="#f1_fy" transform="matrix(14,0,0,14,92.8,182.3)" />
<use xlink:href="#f1_h2" transform="matrix(14,0,0,14,105.2,182.3)" />
<use xlink:href="#f1_gr" transform="matrix(14,0,0,14,115.9,182.3)" />
<use xlink:href="#f1_gt" transform="matrix(14,0,0,14,125.4,182.3)" />
<use xlink:href="#f1_gr" transform="matrix(14,0,0,14,135.4,182.3)" />
<use xlink:href="#f1_19" transform="matrix(14,0,0,14,150.3,182.3)" />
<use xlink:href="#f1_i" transform="matrix(14,0,0,14,157.5,182.3)" />
<use xlink:href="#f1_g9" transform="matrix(14,0,0,14,168.1,182.3)" />
<use xlink:href="#f1_h8" transform="matrix(14,0,0,14,183.5,182.3)" />
<use xlink:href="#f1_h4" transform="matrix(14,0,0,14,193,182.3)" />
<use xlink:href="#f1_h5" transform="matrix(14,0,0,14,204.4,182.3)" />
<use xlink:href="#f1_gt" transform="matrix(14,0,0,14,215.2,182.3)" />
<use xlink:href="#f1_h4" transform="matrix(14,0,0,14,225.3,182.3)" />
<use xlink:href="#f1_hi" transform="matrix(14,0,0,14,236.6,182.3)" />
<use xlink:href="#f1_gw" transform="matrix(14,0,0,14,251.1,182.3)" />
<use xlink:href="#f1_h4" transform="matrix(14,0,0,14,265.8,182.3)" />
<use xlink:href="#f1_gr" transform="matrix(14,0,0,14,277.3,182.3)" />
<use xlink:href="#f1_he" transform="matrix(14,0,0,14,286.8,182.3)" />
<use xlink:href="#f1_gr" transform="matrix(14,0,0,14,297.6,182.3)" />
<use xlink:href="#f1_h2" transform="matrix(14,0,0,14,307.2,182.3)" />
<use xlink:href="#f1_gr" transform="matrix(14,0,0,14,317.9,182.3)" />
<use xlink:href="#f1_h6" transform="matrix(14,0,0,14,332.5,182.3)" />
<use xlink:href="#f1_h5" transform="matrix(14,0,0,14,344,182.3)" />
<use xlink:href="#f1_h2" transform="matrix(14,0,0,14,354.8,182.3)" />
<use xlink:href="#f1_gz" transform="matrix(14,0,0,14,365.2,182.3)" />
<use xlink:href="#f1_h9" transform="matrix(14,0,0,14,376.7,182.3)" />
<use xlink:href="#f1_gz" transform="matrix(14,0,0,14,386.1,182.3)" />
<use xlink:href="#f1_he" transform="matrix(14,0,0,14,397.6,182.3)" />
<use xlink:href="#f1_gw" transform="matrix(14,0,0,14,408.3,182.3)" />
<use xlink:href="#f1_h8" transform="matrix(14,0,0,14,417.8,182.3)" />
<use xlink:href="#f1_h1" transform="matrix(14,0,0,14,427.3,182.3)" />
<use xlink:href="#f1_h5" transform="matrix(14,0,0,14,437.6,182.3)" />
<use xlink:href="#f1_h0" transform="matrix(14,0,0,14,448.4,182.3)" />
<use xlink:href="#f1_hk" transform="matrix(14,0,0,14,465.3,182.3)" />
<use xlink:href="#f1_h1" transform="matrix(14,0,0,14,474.4,182.3)" />
<use xlink:href="#f1_h5" transform="matrix(14,0,0,14,484.7,182.3)" />
<use xlink:href="#f1_h4" transform="matrix(14,0,0,14,495.3,182.3)" />
<use xlink:href="#f1_h5" transform="matrix(14,0,0,14,506.8,182.3)" />
<use xlink:href="#f1_h3" transform="matrix(14,0,0,14,517.6,182.3)" />
<use xlink:href="#f1_gz" transform="matrix(14,0,0,14,531,182.3)" />
<use xlink:href="#f1_gz" transform="matrix(14,0,0,14,542.5,182.3)" />
<use xlink:href="#f1_g" transform="matrix(14,0,0,14,554,182.3)" />
<use xlink:href="#f1_gy" transform="matrix(14,0,0,14,564.7,182.3)" />
<use xlink:href="#f1_gr" transform="matrix(14,0,0,14,573.2,182.3)" />
<use xlink:href="#f1_h1" transform="matrix(14,0,0,14,582.5,182.3)" />
<use xlink:href="#f1_h5" transform="matrix(14,0,0,14,592.9,182.3)" />
<use xlink:href="#f1_h4" transform="matrix(14,0,0,14,603.6,182.3)" />
<use xlink:href="#f1_hi" transform="matrix(14,0,0,14,614.9,182.3)" />
<use xlink:href="#f1_gs" transform="matrix(14,0,0,14,634.7,182.3)" />
<use xlink:href="#f1_gw" transform="matrix(14,0,0,14,645.7,182.3)" />
<use xlink:href="#f1_gv" transform="matrix(14,0,0,14,655.1,182.3)" />
<use xlink:href="#f1_h4" transform="matrix(14,0,0,14,666,182.3)" />
<use xlink:href="#f1_h5" transform="matrix(14,0,0,14,677.4,182.3)" />
<use xlink:href="#f1_h8" transform="matrix(14,0,0,14,688.2,182.3)" />
<use xlink:href="#f1_h9" transform="matrix(14,0,0,14,697.7,182.3)" />
<use xlink:href="#f1_gz" transform="matrix(14,0,0,14,706.9,182.3)" />
<use xlink:href="#f1_gz" transform="matrix(14,0,0,14,723.8,182.3)" />
<use xlink:href="#f1_h7" transform="matrix(14,0,0,14,740.4,182.3)" />
<use xlink:href="#f1_gr" transform="matrix(14,0,0,14,751.2,182.3)" />
<use xlink:href="#f1_gt" transform="matrix(14,0,0,14,760.7,182.3)" />
<use xlink:href="#f1_h4" transform="matrix(14,0,0,14,770.6,182.3)" />
<use xlink:href="#f1_h5" transform="matrix(14,0,0,14,782.2,182.3)" />
<use xlink:href="#f1_gt" transform="matrix(14,0,0,14,792.8,182.3)" />
<use xlink:href="#f1_gw" transform="matrix(14,0,0,14,802.9,182.3)" />
<use xlink:href="#f1_h8" transform="matrix(14,0,0,14,812.5,182.3)" />
<use xlink:href="#f1_gz" transform="matrix(14,0,0,14,822,182.3)" />
<use xlink:href="#f1_hm" transform="matrix(14,0,0,14,833.5,182.3)" />
<use xlink:href="#f1_m" transform="matrix(14,0,0,14,76.6,208.7)" />
<use xlink:href="#f1_fy" transform="matrix(14,0,0,14,92.8,208.7)" />
<use xlink:href="#f1_h2" transform="matrix(14,0,0,14,105.2,208.7)" />
<use xlink:href="#f1_gr" transform="matrix(14,0,0,14,115.9,208.7)" />
<use xlink:href="#f1_gt" transform="matrix(14,0,0,14,125.4,208.7)" />
<use xlink:href="#f1_gr" transform="matrix(14,0,0,14,135.4,208.7)" />
<use xlink:href="#f1_19" transform="matrix(14,0,0,14,150.3,208.7)" />
<use xlink:href="#f1_19" transform="matrix(14,0,0,14,157.5,208.7)" />
<use xlink:href="#f1_i" transform="matrix(14,0,0,14,164.6,208.7)" />
<use xlink:href="#f1_g3" transform="matrix(14,0,0,14,175.3,208.7)" />
<use xlink:href="#f1_h2" transform="matrix(14,0,0,14,190.6,208.7)" />
<use xlink:href="#f1_h2" transform="matrix(14,0,0,14,201.3,208.7)" />
<use xlink:href="#f1_hl" transform="matrix(14,0,0,14,211.9,208.7)" />
<use xlink:href="#f1_gy" transform="matrix(14,0,0,14,227.9,208.7)" />
<use xlink:href="#f1_gz" transform="matrix(14,0,0,14,236.3,208.7)" />
<use xlink:href="#f1_gz" transform="matrix(14,0,0,14,247.8,208.7)" />
<use xlink:href="#f1_gs" transform="matrix(14,0,0,14,264.6,208.7)" />
<use xlink:href="#f1_h5" transform="matrix(14,0,0,14,275.5,208.7)" />
<use xlink:href="#f1_gu" transform="matrix(14,0,0,14,286.3,208.7)" />
<use xlink:href="#f1_gr" transform="matrix(14,0,0,14,295.1,208.7)" />
<use xlink:href="#f1_h9" transform="matrix(14,0,0,14,304.7,208.7)" />
<use xlink:href="#f1_h8" transform="matrix(14,0,0,14,313.8,208.7)" />
<use xlink:href="#f1_h9" transform="matrix(14,0,0,14,323.4,208.7)" />
<use xlink:href="#f1_gt" transform="matrix(14,0,0,14,332.7,208.7)" />
<use xlink:href="#f1_gr" transform="matrix(14,0,0,14,342.9,208.7)" />
<use xlink:href="#f1_i" transform="matrix(14,0,0,14,352.4,208.7)" />
<use xlink:href="#f1_g8" transform="matrix(14,0,0,14,363,208.7)" />
<use xlink:href="#f1_gr" transform="matrix(14,0,0,14,378.4,208.7)" />
<use xlink:href="#f1_he" transform="matrix(14,0,0,14,387.9,208.7)" />
<use xlink:href="#f1_gr" transform="matrix(14,0,0,14,398.7,208.7)" />
<use xlink:href="#f1_h2" transform="matrix(14,0,0,14,408.2,208.7)" />
<use xlink:href="#f1_h5" transform="matrix(14,0,0,14,418.9,208.7)" />
<use xlink:href="#f1_gz" transform="matrix(14,0,0,14,434.8,208.7)" />
<use xlink:href="#f1_gt" transform="matrix(14,0,0,14,451.6,208.7)" />
<use xlink:href="#f1_h8" transform="matrix(14,0,0,14,461.6,208.7)" />
<use xlink:href="#f1_gw" transform="matrix(14,0,0,14,471.1,208.7)" />
<use xlink:href="#f1_h5" transform="matrix(14,0,0,14,480.6,208.7)" />
<use xlink:href="#f1_gs" transform="matrix(14,0,0,14,491.5,208.7)" />
<use xlink:href="#f1_hg" transform="matrix(14,0,0,14,502.3,208.7)" />
<use xlink:href="#f1_h4" transform="matrix(14,0,0,14,518.8,208.7)" />
<use xlink:href="#f1_h5" transform="matrix(14,0,0,14,530.1,208.7)" />
<use xlink:href="#f1_h8" transform="matrix(14,0,0,14,540.9,208.7)" />
<use xlink:href="#f1_h9" transform="matrix(14,0,0,14,550.4,208.7)" />
<use xlink:href="#f1_hj" transform="matrix(14,0,0,14,559.8,208.7)" />
<use xlink:href="#f1_h6" transform="matrix(14,0,0,14,574.9,208.7)" />
<use xlink:href="#f1_gr" transform="matrix(14,0,0,14,586.3,208.7)" />
<use xlink:href="#f1_ha" transform="matrix(14,0,0,14,595.9,208.7)" />
<use xlink:href="#f1_h6" transform="matrix(14,0,0,14,606.4,208.7)" />
<use xlink:href="#f1_gw" transform="matrix(14,0,0,14,617.9,208.7)" />
<use xlink:href="#f1_h7" transform="matrix(14,0,0,14,627.2,208.7)" />
<use xlink:href="#f1_gz" transform="matrix(14,0,0,14,638,208.7)" />
<use xlink:href="#f1_gy" transform="matrix(14,0,0,14,649.5,208.7)" />
<use xlink:href="#f1_h3" transform="matrix(14,0,0,14,658,208.7)" />
<use xlink:href="#f1_gr" transform="matrix(14,0,0,14,671.4,208.7)" />
<use xlink:href="#f1_i" transform="matrix(14,0,0,14,680.9,208.7)" />
</g>
<image preserveAspectRatio="none" x="-87" y="147" width="1085" height="1249" xlink:href="img/2.png" />
<defs>
	<path d="M597.4,32.1c0,0,76.4,0,128.3,36.7c0,0,65.7,48.8,100.8,152.7c0,0,36.7,105.4,36.7,273.5c0,0,0,201.7,-36.7,301c0,0,-36.6,99.3,-94.7,140.5c0,0,-58,41.3,-132.9,41.3c0,0,-139,0,-212.4,-142.1c0,0,-58,-116.1,-58,-334.6c0,0,0,-258.2,90.1,-381.9c0,0,64.2,-87.1,178.8,-87.1Zm1.5,-54.9c0,0,-273.5,0,-421.7,183.2c0,0,-117.6,146.7,-117.6,348.4c0,0,0,224.5,152.8,374.3c0,0,143.9,142.4,357.7,142.4c6.5,0,13,-0.1,19.6,-0.4c0,0,2.9,0.1,8.2,0.1c43.4,0,249.7,-7.2,384.5,-140.6c0,0,151.2,-151.3,151.2,-375.8c0,0,0,-192.5,-113,-339.2c0,0,-149.8,-192.4,-421.7,-192.4Z" 
	id="f0_g9"
	transform="scale(0.001,-0.001)" />

	<path d="M53.5,0l0,27.5c0,0,42.8,3.1,59.6,21.4c0,0,16.8,19.9,16.8,79.4l0,443.1c0,0,0,53.5,-15.3,73.3c0,0,-16.8,21.4,-61.1,24.5l0,27.5l612.6,0l0,-181.8l-27.5,0c0,0,-16.8,85.5,-45.8,110c0,0,-30.6,24.4,-116.1,24.4l-137.5,0l0,-525.5c0,0,0,-52,16.8,-73.4c0,0,18.3,-21.4,70.3,-22.9L426.3,0Z" 
	id="f0_gu"
	transform="scale(0.001,-0.001)" />

	<path d="M140.6,-10.6c0,0,-59.6,0,-96.3,35c0,0,-36.7,35.2,-36.7,82.5c0,0,0,45.9,26,73.4c0,0,27.5,29,68.8,29c0,0,80.9,0,80.9,-96.2c0,0,0,-44.3,16.8,-44.3c0,0,32.1,0,50.5,53.4c0,0,18.3,55,18.3,223.1l0,201.6c0,0,0,68.8,-18.3,94.8c0,0,-19.9,25.9,-64.2,27.5l0,27.5l614.2,0l0,-27.5c0,0,-74.9,-1.6,-74.9,-94.8l0,-447.6c0,0,0,-51.9,15.3,-74.9c0,0,16.8,-22.9,59.6,-24.4L800.6,0L430.8,0l0,27.5c0,0,38.2,0,61.1,16.8c0,0,24.5,18.3,24.5,79.5l0,525.5l-197.1,0l0,-304c0,0,0,-165,-15.3,-227.7c0,0,-16.8,-62.6,-64.1,-94.7c0,0,-47.4,-33.5,-99.3,-33.5Z" 
	id="f0_h2"
	transform="scale(0.001,-0.001)" />

	<path d="M349.9,114.6c0,0,36.6,0,85.5,42.8l0,232.2c0,0,-90.1,-52,-134.4,-113.1c0,0,-29.1,-39.7,-29.1,-80.9c0,0,0,-35.2,24.5,-61.2c0,0,19.9,-19.8,53.5,-19.8ZM206.3,-9.1c0,0,-59.6,0,-99.4,38.1c0,0,-39.7,38.2,-39.7,97.8c0,0,0,79.5,68.8,143.6c0,0,68.7,64.2,299.4,169.6l0,70.3c0,0,0,79.4,-7.6,99.3c0,0,-9.2,21.4,-32.1,36.7c0,0,-24.4,15.2,-55,15.2c0,0,-48.9,0,-79.4,-22.9c0,0,-19.9,-12.2,-19.9,-30.5c0,0,0,-15.3,21.4,-38.2c0,0,27.5,-32.1,27.5,-62.7c0,0,0,-36.6,-26,-62.6c0,0,-27.5,-26,-71.8,-26c0,0,-47.4,0,-77.9,29c0,0,-32.1,29.1,-32.1,65.7c0,0,0,55,41.3,103.9c0,0,42.7,48.9,119.1,74.9c0,0,76.4,26,158.9,26c0,0,99.3,0,155.8,-41.3c0,0,58.1,-42.8,76.4,-93.2c0,0,9.2,-30.5,9.2,-143.6l0,-270.4c0,0,0,-47.4,3.1,-59.6c0,0,4.5,-13.7,12.2,-18.3c0,0,7.6,-6.1,16.8,-6.1c0,0,19.8,0,39.7,27.5L737.9,94.7c0,0,-38.2,-55,-77.9,-79.4c0,0,-39.7,-24.4,-90.1,-24.4c0,0,-59.6,0,-93.2,27.4c0,0,-33.6,27.5,-41.3,84.1c0,0,-126.8,-111.5,-229.1,-111.5Z" 
	id="f0_gr"
	transform="scale(0.001,-0.001)" />

	<path d="M409.4,45.8c0,0,62.7,0,105.5,42.8c0,0,44.3,44.3,44.3,113.1c0,0,0,71.8,-48.9,103.9c0,0,-48.9,33.6,-160.4,33.6l0,-229.2c0,0,0,-35.1,10.7,-48.9c0,0,10.7,-15.3,48.8,-15.3ZM349.9,385c0,0,177.2,6.1,177.2,132.9c0,0,0,129.9,-177.2,131.4l0,-264.3ZM53.5,0l0,27.5c0,0,51.9,4.6,64.1,22.9c0,0,12.3,18.4,12.3,73.4l0,415.5c0,0,0,84,-13.8,105.4c0,0,-13.7,21.4,-62.6,24.5l0,27.5l385,0c0,0,120.7,0,197.1,-42.8c0,0,77.9,-44.3,77.9,-129.9c0,0,0,-116.1,-160.4,-155.8c0,0,215.4,-26,215.4,-180.3c0,0,0,-94.7,-87.1,-140.5C681.4,47.4,594.3,0,443.1,0Z" 
	id="f0_gt"
	transform="scale(0.001,-0.001)" />

	<path d="M458.3,423.2c0,0,0,119.2,-12.2,163.5c0,0,-13.7,45.8,-41.2,68.7c0,0,-16.8,13.8,-42.8,13.8c0,0,-38.2,0,-62.7,-38.2c0,0,-44.3,-65.7,-44.3,-181.8l0,-26ZM357.5,-19.8c0,0,-155.8,0,-235.3,117.6c0,0,-64.1,96.2,-64.1,238.3c0,0,0,174.2,94.7,278.1c0,0,94.7,103.9,221.5,103.9c0,0,105.4,0,183.3,-87.1c0,0,78,-87.1,84.1,-258.2l-383.5,0c0,0,7.6,-139,74.9,-218.5c0,0,50.4,-62.6,123.7,-62.6c0,0,44.3,0,81,24.4c0,0,36.6,26,77.9,90.2l26,-16.9c0,0,-56.6,-114.5,-125.3,-161.9c0,0,-68.8,-47.3,-158.9,-47.3Z" 
	id="f0_gw"
	transform="scale(0.001,-0.001)" />

	<path d="M51.9,0l0,27.5c0,0,42.8,0,59.6,21.4c0,0,18.4,21.4,18.4,84l0,427.8c0,0,0,65.7,-16.8,87.1c0,0,-18.4,21.4,-61.2,21.4l0,27.5l354.5,0l0,-27.5c0,0,-36.7,-1.6,-52,-18.4c0,0,-15.2,-18.3,-15.2,-82.5l0,-184.8l200.1,0l0,184.8c0,0,0,52,-10.7,76.4c0,0,-12.2,24.5,-56.5,24.5l0,27.5l354.4,0l0,-27.5c0,0,-44.3,0,-61.1,-21.4c0,0,-18.3,-21.4,-18.3,-71.8l0,-443.1c0,0,0,-65.7,16.8,-84c0,0,18.3,-19.9,62.6,-21.4L826.5,0L472.1,0l0,27.5c0,0,36.7,0,51.9,16.8c0,0,15.3,16.8,15.3,82.5l0,210.8l-200.1,0l0,-204.7c0,0,0,-67.2,15.2,-85.5c0,0,15.3,-19.9,52,-19.9L406.4,0Z" 
	id="f0_h4"
	transform="scale(0.001,-0.001)" />

	<path d="M51.9,0l0,27.5c0,0,42.8,0,59.6,22.9c0,0,18.4,24.5,18.4,84l0,430.9c0,0,0,103.9,-78,103.9l0,27.5l354.5,0l0,-27.5c0,0,-38.2,-1.6,-52,-21.4c0,0,-15.2,-21.4,-15.2,-82.5l0,-340.7L539.3,571.4c0,0,-1.5,55,-16.8,76.4c0,0,-15.3,21.4,-50.4,21.4l0,27.5l354.4,0l0,-27.5c0,0,-39.7,-1.6,-59.6,-19.9c0,0,-19.8,-19.9,-19.8,-74.9l0,-444.5c0,0,0,-61.1,16.8,-81c0,0,18.3,-21.4,62.6,-21.4L826.5,0L472.1,0l0,27.5c0,0,67.2,0,67.2,99.3l0,342.2L339.2,126.8c0,0,0,-97.8,67.2,-99.3L406.4,0Z" 
	id="f0_gz"
	transform="scale(0.001,-0.001)" />

	<path d="M195.6,0l0,27.5c0,0,71.8,1.5,93.2,12.2c0,0,21.3,10.7,29,29.1c0,0,7.6,18.3,7.6,108.4l0,547c0,0,0,110,-7.6,140.5c0,0,-4.6,24.5,-18.4,35.2c0,0,-13.7,12.2,-33.6,12.2c0,0,-27.5,0,-76.4,-22.9l-10.6,22.9l245.9,119.2l24.5,0l0,-854.1c0,0,0,-84,6.1,-105.4c0,0,7.6,-21.4,30.5,-32.1c0,0,23,-10.7,90.2,-12.2L576,0Z" 
	id="f1_l"
	transform="scale(0.001,-0.001)" />

	<path d="M27.5,0l0,27.5c0,0,93.2,3.1,119.2,29c0,0,25.9,27.5,25.9,126.8l0,643.2c0,0,0,99.3,-25.9,126.8c0,0,-26,27.5,-119.2,30.6l0,27.5l811.3,0l3,-236.8l-29,0c0,0,-3.1,71.8,-30.6,114.6c0,0,-27.5,42.7,-67.2,53.4c0,0,-39.7,12.3,-114.6,12.3l-284.1,0l0,-771.6c0,0,0,-99.3,25.9,-125.2c0,0,26,-27.5,119.2,-30.6L461.4,0Z" 
	id="f1_fy"
	transform="scale(0.001,-0.001)" />

	<path d="M103.9,-10.6c0,0,-96.3,0,-96.3,76.3c0,0,0,27.5,15.3,44.3c0,0,15.3,16.8,39.7,16.8c0,0,27.5,0,48.9,-21.4c0,0,29.1,-27.5,44.3,-27.5c0,0,33.6,0,48.9,55c0,0,15.3,56.5,15.3,198.6l0,149.8c0,0,0,117.6,-16.8,142c0,0,-16.8,26,-85.6,30.6l0,29l611.2,0l0,-29c0,0,-52,0,-68.8,-9.2c0,0,-16.8,-10.7,-26,-25.9c0,0,-9.1,-15.3,-9.1,-96.3l0,-363.6c0,0,0,-77.9,7.6,-93.2c0,0,7.6,-15.3,24.4,-26c0,0,18.4,-12.2,71.9,-12.2L728.8,0L374.3,0l0,27.5c0,0,58.1,0,79.5,4.6c0,0,22.9,6.1,35.1,29c0,0,12.2,22.9,12.2,97.8l0,475.1l-227.6,0l0,-287.2c0,0,0,-163.5,-13.8,-229.2c0,0,-15.3,-67.2,-58,-97.7c0,0,-42.8,-30.5,-97.8,-30.5Z" 
	id="f1_h2"
	transform="scale(0.001,-0.001)" />

	<path d="M285.7,71.8c0,0,56.5,0,148.2,74.9l0,259.7c0,0,-113.1,-44.3,-145.1,-62.6c0,0,-59.6,-33.7,-84.1,-68.8c0,0,-25.9,-36.7,-25.9,-79.4c0,0,0,-53.5,32,-88.7c0,0,32.1,-35.1,74.9,-35.1ZM216.9,-13.7c0,0,-71.8,0,-117.6,47.3c0,0,-45.8,48.9,-45.8,126.8c0,0,0,50.4,22.9,87.1c0,0,30.5,50.4,105.4,94.7c0,0,76.4,45.9,252.1,110l0,26c0,0,0,102.4,-32.1,140.6c0,0,-32.1,38.1,-94.7,38.1c0,0,-47.4,0,-74.9,-24.4c0,0,-27.5,-26,-27.5,-59.6l1.6,-42.8c0,0,0,-33.6,-16.9,-51.9c0,0,-18.3,-19.9,-47.3,-19.9c0,0,-27.5,0,-44.3,19.9c0,0,-18.4,19.9,-18.4,53.5c0,0,0,64.1,65.7,117.6c0,0,65.7,53.5,184.9,53.5c0,0,90.1,0,148.2,-30.6c0,0,44.3,-22.9,65.7,-71.8c0,0,13.7,-32.1,13.7,-131.4l0,-232.2c0,0,0,-97.8,3.1,-119.2c0,0,4.6,-22.9,12.2,-30.5c0,0,9.2,-7.7,19.9,-7.7c0,0,12.2,0,21.4,6.2c0,0,15.2,9.1,59.6,53.4l0,-41.2c0,0,-82.5,-109.9,-158.9,-109.9c0,0,-36.7,0,-58.1,24.3c0,0,-21.4,24.5,-22.9,85.6c0,0,-105.4,-81,-131.4,-94.7c0,0,-41.2,-16.8,-85.6,-16.8Z" 
	id="f1_gr"
	transform="scale(0.001,-0.001)" />

	<path d="M349.9,47.4c0,0,88.6,0,131.4,38.2c0,0,42.7,39.7,42.7,100.8c0,0,0,68.7,-55,105.4c0,0,-56.5,36.7,-155.8,36.7c0,0,-24.4,0,-53.5,-1.6l0,-267.3c0,0,38.2,-12.2,90.2,-12.2Zm-50.5,330c0,0,102.4,0,148.2,38.2c0,0,45.9,39.7,45.9,94.7c0,0,0,65.7,-45.9,94.7c0,0,-47.3,29,-148.2,29l-39.7,0l0,-256.6ZM35.1,0l0,27.5c0,0,65.7,0,82.5,24.4c0,0,18.4,24.5,18.4,107l0,363.6c0,0,0,81,-7.7,94.7c0,0,-7.6,13.8,-24.4,24.5c0,0,-16.8,12.2,-68.8,12.2l0,29l314.8,0c0,0,91.6,0,146.6,-13.7c0,0,56.6,-15.3,93.2,-56.6c0,0,36.7,-41.2,36.7,-102.3c0,0,0,-116.1,-146.7,-149.7c0,0,187.9,-39.8,187.9,-175.7c0,0,0,-93.2,-77.9,-139.1C589.7,45.8,511.8,0,372.8,0Z" 
	id="f1_gt"
	transform="scale(0.001,-0.001)" />

	<path d="M36.7,0l0,27.5l36.6,0c0,0,62.7,0,90.2,35.1c0,0,18.3,24.5,18.3,116.2l0,652.3c0,0,0,77.9,-9.2,102.4c0,0,-7.6,18.3,-30.5,32.1c0,0,-33.6,18.3,-68.8,18.3l-36.6,0l0,27.5l433.9,0l0,-27.5l-36.7,0c0,0,-61.1,0,-90.1,-36.7c0,0,-18.4,-24.4,-18.4,-116.1l0,-652.3c0,0,0,-78,9.2,-102.4c0,0,7.6,-18.3,32.1,-32.1c0,0,32.1,-16.8,67.2,-16.8l36.7,0L470.6,0Z" 
	id="f1_19"
	transform="scale(0.001,-0.001)" />

	<path d="M189.4,-19.8c0,0,-33.6,0,-58,22.9c0,0,-24.5,24.4,-24.5,58c0,0,0,35.2,24.5,58.1c0,0,24.4,24.4,58,24.4c0,0,35.2,0,59.6,-24.4c0,0,24.5,-24.5,24.5,-58.1c0,0,0,-33.6,-24.5,-56.5c0,0,-24.4,-24.4,-59.6,-24.4Z" 
	id="f1_i"
	transform="scale(0.001,-0.001)" />

	<path d="M543.9,29c0,0,143.6,0,235.3,111.6c0,0,93.2,111.5,93.2,349.8c0,0,0,259.7,-102.4,388.1c0,0,-81,100.8,-226.1,100.8c0,0,-136,0,-218.5,-100.8c0,0,-102.3,-125.3,-102.3,-366.7c0,0,0,-247.5,106.9,-381.9C330,129.9,411,29,543.9,29Zm1.5,-51.8c0,0,-207.8,0,-349.8,148.1c0,0,-142.1,148.2,-142.1,383.5c0,0,0,241.3,163.4,392.6c0,0,142.1,132.9,340.7,132.9c0,0,197.1,0,340.7,-149.7c0,0,145.2,-149.7,145.2,-374.3c0,0,0,-229.2,-145.2,-380.4c0,0,-145.1,-152.7,-352.9,-152.7Z" 
	id="f1_g9"
	transform="scale(0.001,-0.001)" />

	<path d="M340.7,-19.8c0,0,-116.1,0,-201.7,96.2c0,0,-87.1,97.8,-87.1,264.3c0,0,0,160.4,94.8,261.2c0,0,96.2,100.9,230.7,100.9c0,0,100.8,0,165,-53.5c0,0,65.7,-53.5,65.7,-110c0,0,0,-29,-18.4,-45.8c0,0,-18.3,-18.4,-50.4,-18.4c0,0,-44.3,0,-67.2,29.1c0,0,-12.2,15.2,-16.8,58c0,0,-4.6,44.3,-30.6,68.8c0,0,-25.9,21.4,-71.8,21.4c0,0,-74.8,0,-120.7,-55c0,0,-59.6,-73.4,-59.6,-192.5c0,0,0,-122.3,59.6,-215.5c0,0,59.6,-94.7,162,-94.7c0,0,73.3,0,131.4,50.4c0,0,41.2,33.7,79.4,123.8l22.9,-10.7c0,0,-27.5,-134.4,-108.5,-206.3c0,0,-80.9,-71.7,-178.7,-71.7Z" 
	id="f1_h8"
	transform="scale(0.001,-0.001)" />

	<path d="M33.6,0l0,27.5c0,0,65.7,0,84,22.9c0,0,19.9,24.5,19.9,108.5l0,363.6c0,0,0,64.2,-4.6,85.6c0,0,-6.1,21.3,-27.5,33.6c0,0,-22.9,12.2,-71.8,12.2l0,29l330,0l0,-29c0,0,-45.8,0,-67.2,-9.2c0,0,-21.4,-10.7,-29,-30.5c0,0,-7.7,-19.9,-7.7,-91.7l0,-145.1l296.4,0l0,145.1c0,0,0,64.2,-4.6,84c0,0,-6.1,19.9,-25.9,33.6c0,0,-21.4,13.8,-73.4,13.8l0,29l330,0l0,-29c0,0,-45.8,0,-67.2,-9.2c0,0,-21.4,-10.7,-29,-30.5c0,0,-7.7,-19.9,-7.7,-91.7l0,-363.6c0,0,0,-64.2,6.1,-84c0,0,6.2,-21.4,27.5,-33.6c0,0,21.4,-13.8,70.3,-13.8L782.2,0l-330,0l0,27.5c0,0,61.1,0,82.5,21.4c0,0,21.4,22.9,21.4,110l0,169.6l-296.4,0l0,-169.6c0,0,0,-64.2,6.1,-84c0,0,6.1,-21.4,27.5,-33.6c0,0,21.4,-13.8,70.3,-13.8L363.6,0Z" 
	id="f1_h4"
	transform="scale(0.001,-0.001)" />

	<path d="M404.9,30.6c0,0,71.8,0,119.1,59.5c0,0,47.4,61.2,47.4,206.3c0,0,0,181.8,-77.9,285.7c0,0,-53.5,71.8,-136,71.8c0,0,-39.7,0,-79.4,-22.9c0,0,-39.8,-24.5,-64.2,-82.5c0,0,-24.5,-59.6,-24.5,-151.3c0,0,0,-149.7,59.6,-258.2c0,0,59.6,-108.4,155.9,-108.4ZM372.8,-19.8c0,0,-154.3,0,-246,120.6c0,0,-76.4,103.9,-76.4,233.8c0,0,0,93.2,45.9,186.4c0,0,47.3,93.2,123.7,137.5c0,0,76.4,44.3,160.4,44.3c0,0,155.9,0,250.6,-117.7c0,0,79.4,-100.8,79.4,-232.2c0,0,0,-91.6,-44.3,-184.8c0,0,-44.3,-94.8,-120.7,-140.6c0,0,-77.9,-47.3,-172.6,-47.3Z" 
	id="f1_h5"
	transform="scale(0.001,-0.001)" />

	<path d="M339.2,47.4c0,0,73.3,0,120.7,39.7c0,0,47.3,39.7,47.3,100.8c0,0,0,142.1,-200.1,142.1l-47.4,0l0,-271.9c0,0,39.7,-10.7,79.5,-10.7ZM32.1,0l0,27.5c0,0,67.2,0,85.5,22.9c0,0,18.4,24.5,18.4,108.5l0,363.6c0,0,0,79.4,-7.7,93.2c0,0,-7.6,15.3,-24.4,26c0,0,-18.3,12.2,-71.8,12.2l0,29l357.5,0l0,-29c0,0,-73.3,0,-90.2,-7.6c0,0,-16.8,-9.2,-27.5,-23c0,0,-12.2,-13.7,-12.2,-100.8l0,-143.6l85.6,1.5c0,0,304,0,304,-189.4c0,0,0,-87.1,-73.3,-139.1C576,51.9,501.1,0,360.6,0ZM647.8,0l0,27.5c0,0,58,1.5,74.8,6.1c0,0,18.4,6.1,29.1,29c0,0,12.2,24.5,12.2,96.3l0,363.6c0,0,0,71.8,-7.6,91.7c0,0,-7.7,21.4,-27.5,30.5c0,0,-21.4,9.2,-81,9.2l0,29l343.7,0l0,-29c0,0,-45.8,0,-65.7,-9.2c0,0,-21.4,-9.1,-29,-29c0,0,-7.6,-21.4,-7.6,-93.2l0,-363.6c0,0,0,-68.8,6.1,-88.6c0,0,6.1,-21.4,27.5,-32.1c0,0,22.9,-10.7,68.7,-10.7L991.5,0Z" 
	id="f1_hi"
	transform="scale(0.001,-0.001)" />

	<path d="M478.2,469c0,0,-3.1,65.7,-15.3,91.7c0,0,-18.3,42.8,-55,65.7c0,0,-38.2,24.4,-77.9,24.4c0,0,-62.6,0,-111.5,-47.3c0,0,-48.9,-48.9,-56.6,-134.5ZM354.4,-19.8c0,0,-123.7,0,-210.8,94.7c0,0,-87.1,94.7,-87.1,256.6c0,0,0,175.7,88.6,273.5c0,0,90.2,97.8,226.2,97.8c0,0,114.5,0,187.9,-74.9c0,0,74.8,-76.4,74.8,-203.2l-472.1,0c0,0,-1.5,-151.2,73.4,-238.3c0,0,74.8,-87.1,175.7,-87.1c0,0,67.2,0,116.1,36.7c0,0,50.4,38.2,84,126.8L634,249c0,0,-15.2,-102.3,-90.1,-184.8c0,0,-76.4,-84,-189.5,-84Z" 
	id="f1_gw"
	transform="scale(0.001,-0.001)" />

	<path d="M386.5,0l0,27.5c0,0,59.6,1.5,77.9,6.1c0,0,18.4,6.1,30.6,29c0,0,12.2,24.5,12.2,96.3l0,168c0,0,-110,-56.5,-232.2,-56.5c0,0,-65.7,0,-102.4,16.8c0,0,-36.6,16.8,-45.8,38.2c0,0,-10.7,22.9,-10.7,71.8l0,125.3c0,0,0,65.7,-6.1,87.1c0,0,-6.1,21.4,-26,32.1c0,0,-21.4,12.2,-62.6,12.2l0,29l322.4,0l0,-29c0,0,-50.5,0,-67.3,-9.2c0,0,-18.3,-10.7,-27.5,-25.9c0,0,-9.1,-15.3,-9.1,-96.3l0,-84c0,0,0,-50.4,6.1,-67.2c0,0,7.6,-16.9,33.6,-27.5c0,0,26,-12.3,71.8,-12.3c0,0,82.5,0,155.8,44.3l0,146.7c0,0,0,70.3,-7.6,90.1c0,0,-7.7,21.4,-29,30.6c0,0,-23,10.7,-67.3,10.7l0,29l330,0l0,-29c0,0,-50.4,0,-67.2,-9.2c0,0,-16.8,-10.7,-26,-25.9c0,0,-9.1,-15.3,-9.1,-96.3l0,-363.6c0,0,0,-70.3,6.1,-90.1c0,0,7.6,-21.4,29,-30.6c0,0,22.9,-10.7,67.2,-10.7L733.3,0Z" 
	id="f1_he"
	transform="scale(0.001,-0.001)" />

	<path d="M33.6,0l0,27.5c0,0,65.7,0,84,22.9c0,0,19.9,24.5,19.9,108.5l0,363.6c0,0,0,79.4,-7.6,93.2c0,0,-9.2,15.3,-26,26c0,0,-16.8,12.2,-70.3,12.2l0,29l748.6,0l0,-29c0,0,-50.4,0,-67.2,-9.2c0,0,-16.8,-10.7,-26,-25.9c0,0,-10.7,-15.3,-10.7,-96.3l0,-363.6c0,0,0,-77.9,7.7,-93.2c0,0,9.1,-15.3,25.9,-26c0,0,18.4,-12.2,70.3,-12.2L782.2,0l-330,0l0,27.5c0,0,61.1,0,82.5,21.4c0,0,21.4,22.9,21.4,110l0,475.1l-296.4,0l0,-475.1c0,0,0,-77.9,7.7,-93.2c0,0,9.1,-15.3,25.9,-26c0,0,18.4,-12.2,70.3,-12.2L363.6,0Z" 
	id="f1_h6"
	transform="scale(0.001,-0.001)" />

	<path d="M33.6,0l0,27.5c0,0,65.7,0,84,22.9c0,0,19.9,24.5,19.9,108.5l0,363.6c0,0,0,79.4,-7.6,93.2c0,0,-9.2,15.3,-26,26c0,0,-16.8,12.2,-70.3,12.2l0,29l330,0l0,-29c0,0,-48.9,0,-65.7,-9.2c0,0,-18.3,-10.7,-27.5,-25.9c0,0,-10.7,-15.3,-10.7,-96.3l0,-313.2L556.1,551.5c0,0,-1.5,56.6,-21.4,79.5c0,0,-21.4,22.9,-70.3,22.9l0,29l317.8,0l0,-29c0,0,-50.4,0,-67.2,-9.2c0,0,-16.8,-10.7,-26,-25.9c0,0,-10.7,-15.3,-10.7,-96.3l0,-363.6c0,0,0,-77.9,7.7,-93.2c0,0,9.1,-15.3,25.9,-26c0,0,18.4,-12.2,70.3,-12.2L782.2,0l-330,0l0,27.5c0,0,61.1,0,82.5,21.4c0,0,21.4,22.9,21.4,110l0,322.4L259.7,139c0,0,1.6,-64.1,18.4,-87.1c0,0,16.8,-24.4,71.8,-24.4L349.9,0Z" 
	id="f1_gz"
	transform="scale(0.001,-0.001)" />

	<path d="M158.9,0l0,27.5c0,0,70.3,1.5,90.1,22.9c0,0,21.4,21.4,21.4,108.5l0,475.1l-61.1,0c0,0,-64.2,0,-87.1,-7.6c0,0,-22.9,-7.6,-44.3,-36.7c0,0,-21.4,-30.5,-36.6,-91.6l-33.7,0L36.7,682.9l591.2,0l29,-184.8l-33.6,0c0,0,-9.1,55,-29,85.5c0,0,-21.4,30.6,-47.4,39.7c0,0,-27.5,10.7,-93.1,10.7l-59.6,0l0,-475.1c0,0,0,-74.9,9.1,-94.7c0,0,9.2,-21.4,30.6,-27.5c0,0,21.4,-7.7,96.2,-9.2L530.1,0Z" 
	id="f1_h9"
	transform="scale(0.001,-0.001)" />

	<path d="M33.6,0l0,27.5c0,0,65.7,0,84,22.9c0,0,19.9,24.5,19.9,108.5l0,363.6c0,0,0,79.4,-7.6,93.2c0,0,-9.2,15.3,-26,26c0,0,-16.8,12.2,-70.3,12.2l0,29l342.2,0l0,-29c0,0,-62.6,0,-76.4,-9.2c0,0,-15.2,-9.1,-27.5,-21.4c0,0,-12.2,-13.7,-12.2,-100.8l0,-134.4c0,0,18.4,-1.6,24.5,-1.6c0,0,44.3,0,84,26c0,0,41.2,26,71.8,108.5c0,0,29,79.4,47.4,106.9c0,0,19.8,27.5,53.4,44.3c0,0,33.6,18.4,71.8,18.4c0,0,39.8,0,62.7,-18.4c0,0,24.4,-19.8,24.4,-51.9c0,0,0,-26,-16.8,-44.3c0,0,-16.8,-18.4,-47.3,-18.4c0,0,-16.8,0,-41.3,9.2c0,0,-30.5,10.7,-47.4,10.7c0,0,-35.1,0,-56.5,-58.1c0,0,-26,-68.7,-36.6,-87c0,0,-12.3,-19.9,-45.9,-53.5c0,0,22.9,-6.1,48.9,-33.6c0,0,27.5,-27.5,102.4,-157.4c0,0,58,-103.9,87.1,-131.4c0,0,30.5,-27.5,85.5,-29L731.8,0L531.7,0c0,0,-94.8,136,-171.1,279.6c0,0,-16.8,32.1,-30.6,47.3c0,0,-15.3,16.9,-41.2,16.9c0,0,-9.2,0,-29.1,-1.6l0,-183.3c0,0,0,-73.3,9.2,-93.2c0,0,9.2,-21.4,30.5,-29c0,0,23,-9.2,76.4,-9.2L375.8,0Z" 
	id="f1_h1"
	transform="scale(0.001,-0.001)" />

	<path d="M33.6,0l0,27.5c0,0,65.7,0,84,22.9c0,0,19.9,24.5,19.9,108.5l0,363.6c0,0,0,79.4,-7.6,93.2c0,0,-9.2,15.3,-26,26c0,0,-16.8,12.2,-70.3,12.2l0,29l330,0l0,-29c0,0,-48.9,0,-65.7,-9.2c0,0,-18.3,-10.7,-27.5,-25.9c0,0,-10.7,-15.3,-10.7,-96.3l0,-313.2L556.1,551.5c0,0,-1.5,56.6,-21.4,79.5c0,0,-21.4,22.9,-70.3,22.9l0,29l317.8,0l0,-29c0,0,-50.4,0,-67.2,-9.2c0,0,-16.8,-10.7,-26,-25.9c0,0,-10.7,-15.3,-10.7,-96.3l0,-363.6c0,0,0,-77.9,7.7,-93.2c0,0,9.1,-15.3,25.9,-26c0,0,18.4,-12.2,70.3,-12.2L782.2,0l-330,0l0,27.5c0,0,61.1,0,82.5,21.4c0,0,21.4,22.9,21.4,110l0,322.4L259.7,139c0,0,1.6,-64.1,18.4,-87.1c0,0,16.8,-24.4,71.8,-24.4L349.9,0ZM407.9,802.1c0,0,-122.2,0,-183.3,44.3c0,0,-61.1,44.3,-61.1,110c0,0,0,26,13.7,41.2c0,0,15.3,16.8,38.2,16.8c0,0,48.9,0,87.1,-91.6c0,0,21.4,-53.5,48.9,-65.7c0,0,29,-13.8,55,-13.8c0,0,47.4,0,70.3,19.9c0,0,24.4,21.4,45.8,73.3c0,0,30.6,77.9,76.4,77.9c0,0,22.9,0,38.2,-15.2c0,0,15.3,-16.8,15.3,-41.3c0,0,0,-58,-74.9,-106.9c0,0,-74.9,-48.9,-169.6,-48.9Z" 
	id="f1_h0"
	transform="scale(0.001,-0.001)" />

	<path d="M271.9,-19.8c-148.1,0,-252,149.7,-252,149.7l24.4,15.2C128.3,24.4,256.7,24.4,256.7,24.4c88.6,0,148.2,65.7,148.2,65.7c58,64.2,58,212.4,58,212.4l0,36.7l-227.6,0l0,47.3l221.5,0C443.1,510.3,392.6,582.1,392.6,582.1c-50.4,71.8,-126.8,71.8,-126.8,71.8c-70.2,0,-116.1,-53.5,-116.1,-53.5C103.9,548.5,94.7,470.6,94.7,470.6l-29,0l0,212.3l29,0c15.3,-15.3,32.1,-15.3,32.1,-15.3c10.7,0,53.5,13.8,53.5,13.8c68.7,21.4,114.6,21.4,114.6,21.4C412.5,702.8,508.8,605,508.8,605c94.7,-97.8,94.7,-255.1,94.7,-255.1C603.5,197.1,510.3,88.6,510.3,88.6C417.1,-19.8,271.9,-19.8,271.9,-19.8Z" 
	id="f1_hk"
	transform="scale(0.001,-0.001)" />

	<path d="M33.6,0l0,27.5c0,0,65.7,0,84,22.9c0,0,19.9,24.5,19.9,108.5l0,363.6c0,0,0,79.4,-7.6,93.2c0,0,-9.2,15.3,-26,26c0,0,-16.8,12.2,-70.3,12.2l0,29l239.9,0L488.9,177.2L701.3,682.9l230.6,0l0,-29c0,0,-50.4,0,-67.2,-9.2c0,0,-16.8,-10.7,-25.9,-25.9c0,0,-10.7,-15.3,-10.7,-96.3l0,-363.6c0,0,0,-70.3,7.6,-90.1c0,0,7.6,-21.4,29,-30.6c0,0,22.9,-10.7,67.2,-10.7L931.9,0l-330,0l0,27.5c0,0,61.2,0,81,21.4c0,0,21.4,22.9,21.4,110l0,412.5L462.9,0l-26,0L191,571.4l0,-412.5c0,0,0,-70.3,7.6,-90.1c0,0,7.7,-21.4,29,-30.6c0,0,21.4,-10.7,67.3,-10.7L294.9,0Z" 
	id="f1_h3"
	transform="scale(0.001,-0.001)" />

	<path d="M81,-253.5l0,32.1c0,0,77.9,25.9,119.1,79.4c0,0,42.8,53.5,42.8,113.1c0,0,0,13.7,-7.6,24.4c0,0,-4.6,4.5,-10.7,4.5c0,0,-7.7,0,-35.2,-13.7c0,0,-13.7,-6.1,-29,-6.1c0,0,-35.1,0,-56.5,19.8C103.9,0,81,21.4,81,59.6c0,0,0,36.7,27.5,62.6c0,0,29,26,68.7,26c0,0,48.9,0,87.1,-42.8c0,0,39.7,-42.8,39.7,-111.4c0,0,0,-77.9,-53.4,-143.6c0,0,-53.5,-65.7,-169.6,-103.9Z" 
	id="f1_g"
	transform="scale(0.001,-0.001)" />

	<path d="M296.4,-19.8c0,0,-81,0,-143.6,27.4c0,0,-62.7,29.1,-136,99.3l19.9,19.9c0,0,122.2,-94.7,232.2,-94.7c0,0,62.6,0,102.4,42.8c0,0,41.2,42.7,41.2,110c0,0,0,148.2,-192.5,157.3l0,42.8c0,0,90.1,0,129.9,47.4c0,0,41.2,48.9,41.2,105.4c0,0,0,47.3,-33.6,84c0,0,-35.1,36.7,-93.2,36.7c0,0,-132.9,0,-175.7,-189.5l-26,0l0,213.9l30.6,0c0,0,13.7,-12.2,30.6,-12.2c0,0,12.2,0,55,12.2c0,0,70.2,19.9,114.5,19.9c0,0,99.3,0,165,-45.9c0,0,65.7,-45.8,65.7,-120.6c0,0,0,-116.2,-174.1,-168.1c0,0,203.2,-42.8,203.2,-191c0,0,0,-79.4,-65.7,-137.5c0,0,-65.7,-59.5,-191,-59.5Z" 
	id="f1_gy"
	transform="scale(0.001,-0.001)" />

	<path d="M417.1,30.6c0,0,77.9,0,122.2,64.1c0,0,44.3,64.2,44.3,206.3c0,0,0,151.2,-58,250.5c0,0,-58.1,100.9,-149.8,100.9c0,0,-74.8,0,-122.2,-61.1c0,0,-48.9,-62.7,-48.9,-195.6c0,0,0,-180.3,64.2,-271.9c0,0,64.2,-93.2,148.2,-93.2ZM383.5,-19.8c0,0,-158.9,0,-241.4,131.3c0,0,-84,131.4,-84,322.4c0,0,0,146.7,42.7,275c0,0,42.8,128.3,90.2,191c0,0,48.9,64.1,111.5,93.2c0,0,62.6,29,221.5,30.5c0,0,113.1,1.5,137.5,6.1c0,0,24.5,6.1,45.9,30.6l29,0c0,0,-24.5,-73.4,-59.6,-103.9c0,0,-35.1,-32.1,-74.9,-42.8c0,0,-41.2,-10.7,-145.1,-13.7c0,0,-111.5,-3.1,-154.3,-16.8c0,0,-42.8,-13.8,-88.6,-67.3c0,0,-47.4,-53.4,-71.8,-139c0,0,-26,-87.1,-30.6,-189.4c0,0,85.6,215.4,288.8,215.4c0,0,142.1,0,232.2,-107c0,0,91.7,-106.9,91.7,-244.4c0,0,0,-140.6,-91.7,-255.1c0,0,-91.7,-116.1,-249,-116.1Z" 
	id="f1_gs"
	transform="scale(0.001,-0.001)" />

	<path d="M426.3,47.4c0,0,68.7,0,77.9,10.7c0,0,10.7,12.2,10.7,87l0,488.9l-209.3,0l0,-41.2c0,0,0,-366.7,-133,-545.4ZM18.3,-189.3l0,216.8c0,0,61.1,1.5,111.6,47.4c0,0,50.4,47.3,87,181.8c0,0,38.2,134.4,38.2,265.8c0,0,0,128.3,-114.5,131.4l0,29l601.9,0l0,-29c0,0,-50.4,0,-67.2,-9.2c0,0,-16.8,-10.7,-26,-25.9c0,0,-10.7,-15.3,-10.7,-96.3l0,-337.6c0,0,0,-107,18.3,-131.4c0,0,18.4,-24.5,85.6,-26l0,-216.8l-27.5,0c0,0,-3.1,62.6,-30.6,106.9c0,0,-27.5,45.8,-74.8,64.2C609.6,-18.2,560.7,0,466,0L288.8,0c0,0,-81,0,-126.9,-13.7c0,0,-47.3,-15.2,-77.9,-61.1c0,0,-30.5,-45.8,-38.2,-114.5Z" 
	id="f1_gv"
	transform="scale(0.001,-0.001)" />

	<path d="M397.2,22.9c0,0,74.9,0,120.7,58.1c0,0,59.6,76.4,59.6,213.9c0,0,0,157.3,-68.7,241.4c0,0,-47.4,58,-113.1,58c0,0,-35.1,0,-70.3,-18.3c0,0,-27.5,-12.2,-88.6,-79.5l0,-255.1c0,0,0,-82.5,6.1,-110c0,0,10.7,-42.8,50.4,-74.9c0,0,41.3,-33.6,103.9,-33.6ZM-4.5,-325.3l0,27.5l16.7,0c0,0,1,-0.1,2.8,-0.1c9.6,0,42.9,1.1,67.5,15.4c0,0,13.8,7.6,21.4,25.9c0,0,9.2,18.4,9.2,93.2l0,644.7c0,0,0,65.6,-6.2,84c0,0,-6.1,18.3,-18.3,27.5c0,0,-13.7,9.1,-36.7,9.1c0,0,-18.3,0,-45.8,-10.6L0,614.2l207.8,85.5l29,0l0,-158.9c0,0,52,90.2,105.4,125.3c0,0,53.5,36.7,113.1,36.7c0,0,102.3,0,171.1,-81c0,0,84,-97.8,84,-256.7c0,0,0,-175.7,-100.8,-291.8c0,0,-84,-93.1,-210.8,-93.1c0,0,-55,0,-94.8,15.3c0,0,-30.5,9.1,-67.2,42.7l0,-206.2c0,0,0,-70.2,7.6,-88.6c0,0,9.2,-19.8,30.6,-30.5c0,0,21.4,-10.7,76.4,-10.7l0,-27.5Z" 
	id="f1_h7"
	transform="scale(0.001,-0.001)" />

	<path d="M421.7,356c0,0,9.1,0,19.8,1.5l0,268.9c0,0,-29,7.6,-56.5,7.6c0,0,-74.9,0,-111.5,-36.6c0,0,-38.2,-38.2,-38.2,-88.6c0,0,0,-65.7,53.5,-108.5c0,0,53.4,-44.3,132.9,-44.3ZM0,0L0,27.5c0,0,35.1,0,48.9,9.2c0,0,15.3,10.7,55,65.7L264.3,328.5c0,0,-171.1,59.6,-171.1,181.8c0,0,0,70.3,61.1,120.7c0,0,61.1,51.9,209.3,51.9l304,0l0,-29c0,0,-45.8,0,-67.2,-12.2c0,0,-22.9,-12.3,-29,-32.1c0,0,-7.6,-19.9,-7.6,-87.1l0,-363.6c0,0,0,-64.2,6.1,-84c0,0,6.1,-21.4,29,-33.6c0,0,22.9,-13.8,68.7,-13.8L667.6,0l-330,0l0,27.5c0,0,61.2,0,82.5,21.4c0,0,21.4,22.9,21.4,110l0,149.7L411,307.1c0,0,-7.7,0,-24.5,1.5L168.1,0Z" 
	id="f1_hm"
	transform="scale(0.001,-0.001)" />

	<path d="M32.1,0l0,27.5c0,0,262.8,239.9,369.7,391.1c0,0,108.5,152.8,108.5,279.6c0,0,0,96.2,-58.1,157.4c0,0,-59.6,62.6,-142.1,62.6c0,0,-74.8,0,-132.9,-44.3c0,0,-59.6,-44.3,-88.6,-128.3l-27.5,0c0,0,18.3,139,94.7,212.3c0,0,78,73.4,194.1,73.4c0,0,123.7,0,204.7,-78c0,0,82.5,-79.4,82.5,-187.9c0,0,0,-76.4,-35.2,-152.8c0,0,-55,-120.7,-178.7,-256.6C423.2,356,236.8,154.3,191,111.5l264.3,0c0,0,81,0,113,6.1c0,0,32.1,6.2,58.1,24.5c0,0,26,18.3,45.8,51.9l27.5,0L629.4,0Z" 
	id="f1_m"
	transform="scale(0.001,-0.001)" />

	<path d="M27.5,0l0,27.5c0,0,93.2,3.1,119.2,29c0,0,25.9,27.5,25.9,126.8l0,643.2c0,0,0,99.3,-25.9,126.8c0,0,-26,27.5,-119.2,30.6l0,27.5l435.4,0l0,-27.5c0,0,-94.7,-3.1,-120.7,-30.6c0,0,-25.9,-27.5,-25.9,-126.8l0,-582.1l469,598.9c0,0,0,91.7,-29,116.1c0,0,-29.1,24.5,-119.2,24.5l0,27.5l438.5,0l0,-27.5c0,0,-94.8,-3.1,-120.7,-30.6c0,0,-26,-27.5,-26,-126.8l0,-643.2c0,0,0,-99.3,26,-125.2c0,0,25.9,-27.5,120.7,-30.6l0,-27.5L637.1,0l0,27.5c0,0,96.2,3.1,122.2,29c0,0,26,27.5,26,126.8l0,580.6l-469,-602c0,0,1.5,-64.1,9.1,-85.5c0,0,7.7,-22.9,35.2,-35.1c0,0,29,-12.3,102.3,-13.8L462.9,0Z" 
	id="f1_g3"
	transform="scale(0.001,-0.001)" />

	<path d="M783.8,30.6c0,0,165,0,165,265.8c0,0,0,154.3,-58.1,255.1L734.9,653.9c0,0,-71.8,0,-119.2,-62.6c0,0,-47.4,-62.7,-47.4,-195.6c0,0,0,-148.2,58.1,-256.7c0,0,59.6,-108.4,157.4,-108.4ZM750.1,-19.8c0,0,-140.5,0,-229.1,102.3c0,0,-88.6,103.9,-91.7,247.5l-169.6,0l0,-171.1c0,0,0,-76.4,7.7,-91.7c0,0,7.6,-16.8,24.4,-27.5c0,0,18.3,-12.2,71.8,-12.2L363.6,0L32.1,0l0,27.5c0,0,51.9,1.5,67.2,6.1c0,0,16.8,6.1,26,29c0,0,10.7,24.5,10.7,96.3l0,363.6c0,0,0,88.6,-16.8,110c0,0,-18.4,21.4,-87.1,21.4l0,29l331.5,0l0,-29c0,0,-51.9,0,-68.7,-10.7c0,0,-18.4,-10.7,-26,-26c0,0,-9.2,-16.8,-9.2,-94.7l0,-143.6l171.1,0c0,0,19.9,143.6,110,233.7c0,0,91.7,90.2,218.5,90.2c0,0,145.1,0,236.8,-103.9c0,0,91.7,-105.4,91.7,-246c0,0,0,-91.6,-44.3,-186.4c0,0,-45.9,-96.2,-123.8,-140.5c0,0,-77.9,-45.8,-169.6,-45.8Z" 
	id="f1_hl"
	transform="scale(0.001,-0.001)" />

	<path d="M22.9,0l0,27.5c0,0,71.8,1.5,93.2,21.4c0,0,21.4,21.4,21.4,110l0,363.6c0,0,0,71.8,-7.6,91.7c0,0,-9.2,21.4,-29.1,30.5c0,0,-21.4,9.2,-77.9,9.2l0,29l565.3,0L615.7,496.5l-32.1,0c0,0,-29,91.7,-56.5,114.6c0,0,-29,22.9,-122.2,22.9l-145.2,0l0,-475.1c0,0,0,-77.9,7.7,-93.2c0,0,9.1,-15.3,25.9,-26c0,0,18.4,-12.2,70.3,-12.2L363.6,0Z" 
	id="f1_gu"
	transform="scale(0.001,-0.001)" />

	<path d="M26,0l0,27.5l35.1,0c0,0,62.7,0,91.7,35.1c0,0,16.8,24.5,16.8,116.2l0,652.3c0,0,0,77.9,-9.2,102.4c0,0,-7.6,18.3,-30.5,32.1c0,0,-33.6,18.3,-68.8,18.3l-35.1,0l0,27.5l432.3,0l0,-27.5l-36.6,0c0,0,-35.2,0,-67.3,-18.3c0,0,-22.9,-12.3,-32,-35.2c0,0,-9.2,-24.4,-9.2,-99.3l0,-290.3l470.6,0l0,290.3c0,0,0,77.9,-10.7,102.4c0,0,-7.7,18.3,-30.6,32.1c0,0,-32.1,18.3,-68.7,18.3l-35.2,0l0,27.5l432.4,0l0,-27.5l-35.2,0c0,0,-36.6,0,-68.7,-18.3c0,0,-22.9,-12.3,-32.1,-35.2c0,0,-9.2,-24.4,-9.2,-99.3l0,-652.3c0,0,0,-78,10.7,-102.4c0,0,7.7,-18.3,30.6,-32.1c0,0,32.1,-16.8,68.7,-16.8l35.2,0L1071,0L638.6,0l0,27.5l35.2,0c0,0,62.6,0,90.1,35.1c0,0,19.9,24.5,19.9,116.2l0,307l-470.6,0l0,-307c0,0,0,-78,9.2,-102.4c0,0,7.6,-18.3,32,-32.1c0,0,32.1,-16.8,67.3,-16.8l36.6,0L458.3,0Z" 
	id="f1_g8"
	transform="scale(0.001,-0.001)" />

	<path d="M1113.8,-189.3c0,0,-4.6,93.1,-56.6,140.5c0,0,-51.9,48.8,-190.9,48.8L33.6,0l0,27.5c0,0,61.1,0,82.5,21.4c0,0,21.4,22.9,21.4,110l0,363.6c0,0,0,79.4,-7.6,93.2c0,0,-9.2,15.3,-26,26c0,0,-16.8,12.2,-70.3,12.2l0,29l330,0l0,-29c0,0,-48.9,0,-65.7,-9.2c0,0,-18.3,-10.7,-27.5,-25.9c0,0,-10.7,-15.3,-10.7,-96.3l0,-377.4c0,0,0,-70.2,12.2,-84c0,0,13.8,-13.7,85.6,-13.7l81,0c0,0,47.3,0,62.6,6.1c0,0,15.3,6.1,19.9,18.3c0,0,4.6,13.8,4.6,88.6l0,362.1c0,0,0,79.4,-7.7,94.7c0,0,-9.1,15.3,-26,26c0,0,-16.8,10.7,-70.2,10.7l0,29l317.7,0l0,-29c0,0,-39.7,0,-58,-12.2c0,0,-19.9,-13.8,-26,-32.1c0,0,-6.1,-19.9,-6.1,-87.1l0,-386.5c0,0,0,-64.2,12.2,-76.4c0,0,12.3,-12.2,77.9,-12.2l90.2,0c0,0,71.8,0,77.9,15.2c0,0,7.6,15.3,7.6,93.2l0,366.7c0,0,0,79.4,-7.6,93.2c0,0,-9.2,15.3,-26,26c0,0,-18.3,12.2,-70.2,12.2l0,29l330,0l0,-29c0,0,-50.5,0,-67.3,-9.2c0,0,-16.8,-10.7,-25.9,-25.9c0,0,-10.7,-15.3,-10.7,-96.3l0,-322.4c0,0,0,-100.8,6.1,-123.7c0,0,6.1,-24.5,25.9,-35.1c0,0,19.9,-12.3,71.9,-13.8l0,-216.8Z" 
	id="f1_hg"
	transform="scale(0.001,-0.001)" />

	<path d="M339.2,47.4c0,0,74.8,0,120.7,39.7c0,0,47.3,39.7,47.3,100.8c0,0,0,142.1,-198.6,142.1l-48.9,0l0,-271.9c0,0,39.7,-10.7,79.5,-10.7ZM33.6,0l0,27.5c0,0,65.7,0,84,22.9c0,0,19.9,24.5,19.9,108.5l0,363.6c0,0,0,79.4,-7.6,93.2c0,0,-9.2,15.3,-26,26c0,0,-16.8,12.2,-70.3,12.2l0,29l357.5,0l0,-29c0,0,-73.3,0,-90.1,-7.6c0,0,-18.4,-9.2,-29.1,-23c0,0,-12.2,-13.7,-12.2,-100.8l0,-143.6l85.6,1.5c0,0,304,0,304,-189.4c0,0,0,-87.1,-73.3,-139.1C576,51.9,501.1,0,362.1,0Z" 
	id="f1_hj"
	transform="scale(0.001,-0.001)" />

	<path d="M143.6,-328.4c0,0,-44.3,0,-71.8,24.5c0,0,-29,25.9,-29,58c0,0,0,32.1,19.8,50.4c0,0,21.4,19.9,58.1,19.9c0,0,24.4,0,67.2,-16.8c0,0,29,-10.7,36.7,-10.7c0,0,22.9,0,48.9,22.9c0,0,25.9,22.9,53.4,88.6L375.8,26L129.9,540.8c0,0,-10.7,24.5,-35.2,58.1c0,0,-19.8,26,-32.1,35.1c0,0,-16.8,12.3,-55,21.4l0,27.5l319.3,0l0,-27.5l-15.2,0c0,0,-33.6,0,-50.4,-13.7c0,0,-16.9,-15.3,-16.9,-38.2c0,0,0,-29.1,24.5,-79.5L435.4,178.8L588.2,556.1c0,0,12.2,30.6,12.2,61.1c0,0,0,13.8,-4.6,19.9c0,0,-6.1,7.6,-18.3,12.2c0,0,-13.7,6.1,-45.8,6.1l0,27.5l223,0l0,-27.5c0,0,-27.5,-3,-42.8,-12.2c0,0,-15.2,-9.2,-33.6,-33.6c0,0,-6.1,-10.7,-24.4,-58.1L375.8,-128.2c0,0,-41.2,-99.3,-105.4,-149.8c0,0,-65.7,-50.4,-126.8,-50.4Z" 
	id="f1_ha"
	transform="scale(0.001,-0.001)" />


</defs>
</svg>