<?xml version="1.0" encoding="UTF-8" standalone="no"?>
<!DOCTYPE svg PUBLIC "-//W3C//DTD SVG 1.1//EN"
"http://www.w3.org/Graphics/SVG/1.1/DTD/svg11.dtd">
<svg viewBox="0 0 909 1286" version="1.1" xmlns="http://www.w3.org/2000/svg" xmlns:xlink="http://www.w3.org/1999/xlink">
<defs>
</defs>
<g fill="#000000" >
<use xlink:href="#f0_ga" transform="matrix(14,0,0,14,55,100.8)" />
<use xlink:href="#f0_hj" transform="matrix(14,0,0,14,70.4,100.8)" />
<use xlink:href="#f0_gw" transform="matrix(14,0,0,14,80.1,100.8)" />
<use xlink:href="#f0_h7" transform="matrix(14,0,0,14,89.6,100.8)" />
<use xlink:href="#f0_h" transform="matrix(14,0,0,14,100.5,100.8)" />
<use xlink:href="#f0_g1" transform="matrix(14,0,0,14,107.6,100.8)" />
<use xlink:href="#f0_h5" transform="matrix(14,0,0,14,126.7,100.8)" />
<use xlink:href="#f0_gy" transform="matrix(14,0,0,14,137.5,100.8)" />
<use xlink:href="#f0_gw" transform="matrix(14,0,0,14,146,100.8)" />
<use xlink:href="#f0_hb" transform="matrix(14,0,0,14,155.5,100.8)" />
<use xlink:href="#f0_ga" transform="matrix(14,0,0,14,174.8,100.8)" />
<use xlink:href="#f0_h7" transform="matrix(14,0,0,14,190.1,100.8)" />
<use xlink:href="#f0_ha" transform="matrix(14,0,0,14,200.9,100.8)" />
<use xlink:href="#f0_gv" transform="matrix(14,0,0,14,211.4,100.8)" />
<use xlink:href="#f0_h5" transform="matrix(14,0,0,14,222.3,100.8)" />
<use xlink:href="#f0_h4" transform="matrix(14,0,0,14,233,100.8)" />
<use xlink:href="#f0_fw" transform="matrix(14,0,0,14,55,139.5)" />
<use xlink:href="#f0_gw" transform="matrix(14,0,0,14,67.3,139.5)" />
<use xlink:href="#f0_gv" transform="matrix(14,0,0,14,76.8,139.5)" />
<use xlink:href="#f0_h4" transform="matrix(14,0,0,14,87.8,139.5)" />
<use xlink:href="#f0_h5" transform="matrix(14,0,0,14,99.2,139.5)" />
<use xlink:href="#f0_h8" transform="matrix(14,0,0,14,110,139.5)" />
<use xlink:href="#f0_h9" transform="matrix(14,0,0,14,119.5,139.5)" />
<use xlink:href="#f0_hj" transform="matrix(14,0,0,14,128.9,139.5)" />
<use xlink:href="#f0_h1" transform="matrix(14,0,0,14,143.9,139.5)" />
<use xlink:href="#f0_gr" transform="matrix(14,0,0,14,154.3,139.5)" />
<use xlink:href="#f0_h1" transform="matrix(14,0,0,14,163.7,139.5)" />
<use xlink:href="#f0_hk" transform="matrix(14,0,0,14,179.5,139.5)" />
<use xlink:href="#f0_h1" transform="matrix(14,0,0,14,188.7,139.5)" />
<use xlink:href="#f0_h5" transform="matrix(14,0,0,14,199.1,139.5)" />
<use xlink:href="#f0_h4" transform="matrix(14,0,0,14,209.7,139.5)" />
<use xlink:href="#f0_h5" transform="matrix(14,0,0,14,221.1,139.5)" />
<use xlink:href="#f0_h3" transform="matrix(14,0,0,14,231.7,139.5)" />
<use xlink:href="#f0_gz" transform="matrix(14,0,0,14,245.3,139.5)" />
<use xlink:href="#f0_he" transform="matrix(14,0,0,14,256.8,139.5)" />
<use xlink:href="#f0_gw" transform="matrix(14,0,0,14,267.6,139.5)" />
<use xlink:href="#f0_h8" transform="matrix(14,0,0,14,277.2,139.5)" />
<use xlink:href="#f0_h1" transform="matrix(14,0,0,14,286.5,139.5)" />
<use xlink:href="#f0_gz" transform="matrix(14,0,0,14,296.9,139.5)" />
<use xlink:href="#f0_h0" transform="matrix(14,0,0,14,308.3,139.5)" />
<use xlink:href="#f0_h6" transform="matrix(14,0,0,14,325.2,139.5)" />
<use xlink:href="#f0_h7" transform="matrix(14,0,0,14,336.5,139.5)" />
<use xlink:href="#f0_gz" transform="matrix(14,0,0,14,347.2,139.5)" />
<use xlink:href="#f0_h4" transform="matrix(14,0,0,14,358.7,139.5)" />
<use xlink:href="#f0_hd" transform="matrix(14,0,0,14,370.1,139.5)" />
<use xlink:href="#f0_gz" transform="matrix(14,0,0,14,381.6,139.5)" />
<use xlink:href="#f0_h6" transform="matrix(14,0,0,14,392.9,139.5)" />
</g>
<image preserveAspectRatio="none" x="0" y="0" width="909" height="1286" xlink:href="img/1.png" />
<defs>
	<path d="M27.5,0l0,27.5c0,0,93.2,3.1,119.2,29c0,0,25.9,27.5,25.9,126.8l0,643.2c0,0,0,99.3,-25.9,126.8c0,0,-26,27.5,-119.2,30.6l0,27.5l1048.1,0l0,-27.5c0,0,-94.8,-3.1,-120.7,-30.6c0,0,-26,-27.5,-26,-126.8l0,-643.2c0,0,0,-99.3,26,-125.2c0,0,25.9,-27.5,120.7,-30.6l0,-27.5L640.1,0l0,27.5c0,0,93.2,3.1,119.2,29c0,0,26,26,26,126.8l0,771.6l-469,0l0,-771.6c0,0,0,-99.3,25.9,-125.2c0,0,26,-27.5,120.7,-30.6L462.9,0Z" 
	id="f0_ga"
	transform="scale(0.001,-0.001)" />

	<path d="M339.2,47.4c0,0,74.8,0,120.7,39.7c0,0,47.3,39.7,47.3,100.8c0,0,0,142.1,-198.6,142.1l-48.9,0l0,-271.9c0,0,39.7,-10.7,79.5,-10.7ZM33.6,0l0,27.5c0,0,65.7,0,84,22.9c0,0,19.9,24.5,19.9,108.5l0,363.6c0,0,0,79.4,-7.6,93.2c0,0,-9.2,15.3,-26,26c0,0,-16.8,12.2,-70.3,12.2l0,29l357.5,0l0,-29c0,0,-73.3,0,-90.1,-7.6c0,0,-18.4,-9.2,-29.1,-23c0,0,-12.2,-13.7,-12.2,-100.8l0,-143.6l85.6,1.5c0,0,304,0,304,-189.4c0,0,0,-87.1,-73.3,-139.1C576,51.9,501.1,0,362.1,0Z" 
	id="f0_hj"
	transform="scale(0.001,-0.001)" />

	<path d="M478.2,469c0,0,-3.1,65.7,-15.3,91.7c0,0,-18.3,42.8,-55,65.7c0,0,-38.2,24.4,-77.9,24.4c0,0,-62.6,0,-111.5,-47.3c0,0,-48.9,-48.9,-56.6,-134.5ZM354.4,-19.8c0,0,-123.7,0,-210.8,94.7c0,0,-87.1,94.7,-87.1,256.6c0,0,0,175.7,88.6,273.5c0,0,90.2,97.8,226.2,97.8c0,0,114.5,0,187.9,-74.9c0,0,74.8,-76.4,74.8,-203.2l-472.1,0c0,0,-1.5,-151.2,73.4,-238.3c0,0,74.8,-87.1,175.7,-87.1c0,0,67.2,0,116.1,36.7c0,0,50.4,38.2,84,126.8L634,249c0,0,-15.2,-102.3,-90.1,-184.8c0,0,-76.4,-84,-189.5,-84Z" 
	id="f0_gw"
	transform="scale(0.001,-0.001)" />

	<path d="M397.2,22.9c0,0,74.9,0,120.7,58.1c0,0,59.6,76.4,59.6,213.9c0,0,0,157.3,-68.7,241.4c0,0,-47.4,58,-113.1,58c0,0,-35.1,0,-70.3,-18.3c0,0,-27.5,-12.2,-88.6,-79.5l0,-255.1c0,0,0,-82.5,6.1,-110c0,0,10.7,-42.8,50.4,-74.9c0,0,41.3,-33.6,103.9,-33.6ZM-4.5,-325.3l0,27.5l16.7,0c0,0,1,-0.1,2.8,-0.1c9.6,0,42.9,1.1,67.5,15.4c0,0,13.8,7.6,21.4,25.9c0,0,9.2,18.4,9.2,93.2l0,644.7c0,0,0,65.6,-6.2,84c0,0,-6.1,18.3,-18.3,27.5c0,0,-13.7,9.1,-36.7,9.1c0,0,-18.3,0,-45.8,-10.6L0,614.2l207.8,85.5l29,0l0,-158.9c0,0,52,90.2,105.4,125.3c0,0,53.5,36.7,113.1,36.7c0,0,102.3,0,171.1,-81c0,0,84,-97.8,84,-256.7c0,0,0,-175.7,-100.8,-291.8c0,0,-84,-93.1,-210.8,-93.1c0,0,-55,0,-94.8,15.3c0,0,-30.5,9.1,-67.2,42.7l0,-206.2c0,0,0,-70.2,7.6,-88.6c0,0,9.2,-19.8,30.6,-30.5c0,0,21.4,-10.7,76.4,-10.7l0,-27.5Z" 
	id="f0_h7"
	transform="scale(0.001,-0.001)" />

	<path d="M61.1,285.7l0,113.1l385,0l0,-113.1Z" 
	id="f0_h"
	transform="scale(0.001,-0.001)" />

	<path d="M12.2,0l0,27.5c0,0,111.6,16.8,163.5,85.6c0,0,53.5,68.7,180.3,293.3c0,0,45.8,81,90.1,110c0,0,-44.3,33.6,-67.2,77.9c0,0,-24.5,44.3,-61.1,171.1c0,0,-32.1,100.9,-47.4,125.3c0,0,-15.3,24.4,-41.2,24.4c0,0,-24.5,0,-64.2,-22.9c0,0,-38.2,-21.4,-64.2,-21.4c0,0,-32,0,-51.9,18.4c0,0,-19.9,19.8,-19.9,47.3c0,0,0,33.6,30.6,59.6c0,0,32.1,26,93.2,26c0,0,59.6,0,106.9,-30.6c0,0,47.4,-30.5,67.2,-70.2c0,0,19.9,-41.3,56.6,-158.9c0,0,32.1,-107,48.9,-143.6c0,0,18.3,-36.7,50.4,-55c0,0,33.6,-19.9,84,-19.9c0,0,16.8,0,45.8,4.6l0,278c0,0,0,99.3,-25.9,126.8c0,0,-26,27.5,-120.7,30.6l0,27.5l435.4,0l0,-27.5c0,0,-94.7,-3.1,-119.2,-30.6c0,0,-25.9,-27.5,-25.9,-126.8l0,-278c0,0,19.8,-4.6,38.1,-4.6c0,0,56.6,0,88.7,18.3c0,0,32,19.9,48.8,55c0,0,18.4,35.2,52,145.2c0,0,35.1,116.1,55,155.8c0,0,19.9,41.2,67.2,71.8c0,0,47.4,32.1,108.5,32.1c0,0,58,0,90.1,-24.5c0,0,33.6,-25.9,33.6,-61.1c0,0,0,-27.5,-19.8,-45.8c0,0,-19.9,-19.9,-52,-19.9c0,0,-25.9,0,-65.7,21.4c0,0,-39.7,22.9,-65.7,22.9c0,0,-24.4,0,-39.7,-25.9c0,0,-15.3,-26,-45.8,-123.8c0,0,-38.2,-128.3,-61.1,-171.1c0,0,-22.9,-44.3,-67.2,-77.9c0,0,35.1,-26,59.5,-61.1c0,0,24.5,-36.7,111.6,-189.5c0,0,84,-146.6,129.8,-184.8c0,0,47.4,-38.2,131.4,-53.5l0,-27.5L1096.9,0c0,0,-9.1,18.3,-114.5,215.4L864.7,430.8c0,0,-9.1,19.9,-29,41.3c0,0,-21.4,21.4,-61.1,21.4l-18.3,0l0,-310.2c0,0,0,-99.3,24.4,-125.2c0,0,26,-27.5,120.7,-30.6L901.4,0L466,0l0,27.5c0,0,94.7,3.1,120.7,29c0,0,25.9,27.5,25.9,126.8l0,310.2l-21.3,0c0,0,-27.5,0,-44.4,-9.2c0,0,-18.3,-10.7,-29,-27.5c0,0,-10.7,-18.3,-99.3,-180.3L270.4,0Z" 
	id="f0_g1"
	transform="scale(0.001,-0.001)" />

	<path d="M404.9,30.6c0,0,71.8,0,119.1,59.5c0,0,47.4,61.2,47.4,206.3c0,0,0,181.8,-77.9,285.7c0,0,-53.5,71.8,-136,71.8c0,0,-39.7,0,-79.4,-22.9c0,0,-39.8,-24.5,-64.2,-82.5c0,0,-24.5,-59.6,-24.5,-151.3c0,0,0,-149.7,59.6,-258.2c0,0,59.6,-108.4,155.9,-108.4ZM372.8,-19.8c0,0,-154.3,0,-246,120.6c0,0,-76.4,103.9,-76.4,233.8c0,0,0,93.2,45.9,186.4c0,0,47.3,93.2,123.7,137.5c0,0,76.4,44.3,160.4,44.3c0,0,155.9,0,250.6,-117.7c0,0,79.4,-100.8,79.4,-232.2c0,0,0,-91.6,-44.3,-184.8c0,0,-44.3,-94.8,-120.7,-140.6c0,0,-77.9,-47.3,-172.6,-47.3Z" 
	id="f0_h5"
	transform="scale(0.001,-0.001)" />

	<path d="M296.4,-19.8c0,0,-81,0,-143.6,27.4c0,0,-62.7,29.1,-136,99.3l19.9,19.9c0,0,122.2,-94.7,232.2,-94.7c0,0,62.6,0,102.4,42.8c0,0,41.2,42.7,41.2,110c0,0,0,148.2,-192.5,157.3l0,42.8c0,0,90.1,0,129.9,47.4c0,0,41.2,48.9,41.2,105.4c0,0,0,47.3,-33.6,84c0,0,-35.1,36.7,-93.2,36.7c0,0,-132.9,0,-175.7,-189.5l-26,0l0,213.9l30.6,0c0,0,13.7,-12.2,30.6,-12.2c0,0,12.2,0,55,12.2c0,0,70.2,19.9,114.5,19.9c0,0,99.3,0,165,-45.9c0,0,65.7,-45.8,65.7,-120.6c0,0,0,-116.2,-174.1,-168.1c0,0,203.2,-42.8,203.2,-191c0,0,0,-79.4,-65.7,-137.5c0,0,-65.7,-59.5,-191,-59.5Z" 
	id="f0_gy"
	transform="scale(0.001,-0.001)" />

	<path d="M328.5,29c0,0,58,0,108.4,67.3l0,469c0,0,-42.7,87.1,-108.4,87.1c0,0,-62.7,0,-97.8,-82.5c0,0,-36.7,-84.1,-36.7,-247.5c0,0,0,-145.2,35.2,-218.5c0,0,36.6,-74.9,99.3,-74.9ZM660,29c0,0,58.1,0,94.7,71.8c0,0,36.7,73.4,36.7,226.1c0,0,0,325.5,-128.3,325.5c0,0,-55,0,-111.6,-59.6l0,-482.8c0,0,15.3,-39.7,47.4,-59.6C598.9,50.4,631,29,660,29ZM317.8,-325.3l0,27.5c0,0,74.8,0,96.2,21.4c0,0,22.9,21.4,22.9,111.5l0,209.2c0,0,-56.5,-64.1,-131.3,-64.1c0,0,-103.9,0,-172.7,105.4c0,0,-68.7,106.9,-68.7,262.7c0,0,0,139.1,65.7,246c0,0,65.7,108.5,171.1,108.5c0,0,79.4,0,135.9,-71.8l0,184.8c0,0,0,96.3,-12.2,122.3c0,0,-12.2,25.9,-42.8,25.9c0,0,-24.4,0,-53.4,-12.2l-10.7,24.5l201.6,84l32.1,0l0,-420.2c0,0,68.8,62.7,139.1,62.7c0,0,96.2,0,165,-105.4c0,0,68.7,-107,68.7,-256.7c0,0,0,-148.2,-70.3,-253.6c0,0,-70.2,-106.9,-169.6,-106.9c0,0,-74.8,0,-132.9,64.1l0,-209.2c0,0,0,-74.9,9.2,-94.7c0,0,9.2,-21.4,30.6,-29.1c0,0,22.9,-9.1,94.7,-9.1l0,-27.5Z" 
	id="f0_hb"
	transform="scale(0.001,-0.001)" />

	<path d="M143.6,-328.4c0,0,-44.3,0,-71.8,24.5c0,0,-29,25.9,-29,58c0,0,0,32.1,19.8,50.4c0,0,21.4,19.9,58.1,19.9c0,0,24.4,0,67.2,-16.8c0,0,29,-10.7,36.7,-10.7c0,0,22.9,0,48.9,22.9c0,0,25.9,22.9,53.4,88.6L375.8,26L129.9,540.8c0,0,-10.7,24.5,-35.2,58.1c0,0,-19.8,26,-32.1,35.1c0,0,-16.8,12.3,-55,21.4l0,27.5l319.3,0l0,-27.5l-15.2,0c0,0,-33.6,0,-50.4,-13.7c0,0,-16.9,-15.3,-16.9,-38.2c0,0,0,-29.1,24.5,-79.5L435.4,178.8L588.2,556.1c0,0,12.2,30.6,12.2,61.1c0,0,0,13.8,-4.6,19.9c0,0,-6.1,7.6,-18.3,12.2c0,0,-13.7,6.1,-45.8,6.1l0,27.5l223,0l0,-27.5c0,0,-27.5,-3,-42.8,-12.2c0,0,-15.2,-9.2,-33.6,-33.6c0,0,-6.1,-10.7,-24.4,-58.1L375.8,-128.2c0,0,-41.2,-99.3,-105.4,-149.8c0,0,-65.7,-50.4,-126.8,-50.4Z" 
	id="f0_ha"
	transform="scale(0.001,-0.001)" />

	<path d="M426.3,47.4c0,0,68.7,0,77.9,10.7c0,0,10.7,12.2,10.7,87l0,488.9l-209.3,0l0,-41.2c0,0,0,-366.7,-133,-545.4ZM18.3,-189.3l0,216.8c0,0,61.1,1.5,111.6,47.4c0,0,50.4,47.3,87,181.8c0,0,38.2,134.4,38.2,265.8c0,0,0,128.3,-114.5,131.4l0,29l601.9,0l0,-29c0,0,-50.4,0,-67.2,-9.2c0,0,-16.8,-10.7,-26,-25.9c0,0,-10.7,-15.3,-10.7,-96.3l0,-337.6c0,0,0,-107,18.3,-131.4c0,0,18.4,-24.5,85.6,-26l0,-216.8l-27.5,0c0,0,-3.1,62.6,-30.6,106.9c0,0,-27.5,45.8,-74.8,64.2C609.6,-18.2,560.7,0,466,0L288.8,0c0,0,-81,0,-126.9,-13.7c0,0,-47.3,-15.2,-77.9,-61.1c0,0,-30.5,-45.8,-38.2,-114.5Z" 
	id="f0_gv"
	transform="scale(0.001,-0.001)" />

	<path d="M33.6,0l0,27.5c0,0,65.7,0,84,22.9c0,0,19.9,24.5,19.9,108.5l0,363.6c0,0,0,64.2,-4.6,85.6c0,0,-6.1,21.3,-27.5,33.6c0,0,-22.9,12.2,-71.8,12.2l0,29l330,0l0,-29c0,0,-45.8,0,-67.2,-9.2c0,0,-21.4,-10.7,-29,-30.5c0,0,-7.7,-19.9,-7.7,-91.7l0,-145.1l296.4,0l0,145.1c0,0,0,64.2,-4.6,84c0,0,-6.1,19.9,-25.9,33.6c0,0,-21.4,13.8,-73.4,13.8l0,29l330,0l0,-29c0,0,-45.8,0,-67.2,-9.2c0,0,-21.4,-10.7,-29,-30.5c0,0,-7.7,-19.9,-7.7,-91.7l0,-363.6c0,0,0,-64.2,6.1,-84c0,0,6.2,-21.4,27.5,-33.6c0,0,21.4,-13.8,70.3,-13.8L782.2,0l-330,0l0,27.5c0,0,61.1,0,82.5,21.4c0,0,21.4,22.9,21.4,110l0,169.6l-296.4,0l0,-169.6c0,0,0,-64.2,6.1,-84c0,0,6.1,-21.4,27.5,-33.6c0,0,21.4,-13.8,70.3,-13.8L363.6,0Z" 
	id="f0_h4"
	transform="scale(0.001,-0.001)" />

	<path d="M417.1,48.9c0,0,91.7,0,166.5,61.1c0,0,74.9,61.1,74.9,169.6c0,0,0,111.5,-77.9,165c0,0,-78,55,-197.1,55c0,0,-33.6,0,-67.2,-6.1l0,-433.9c0,0,64.1,-10.7,100.8,-10.7ZM26,0l0,27.5c0,0,94.7,3.1,120.7,29c0,0,25.9,27.5,25.9,126.8l0,643.2c0,0,0,76.4,-10.7,102.4c0,0,-10.6,27.5,-35.1,38.2c0,0,-26,12.2,-91.7,16.8l0,27.5l716.6,0L762.4,789.9l-27.5,0c0,0,-23,106.9,-71.8,135.9c0,0,-50.5,29.1,-177.3,29.1l-169.5,0l0,-400.3l39.7,0c0,0,184.8,0,271.9,-22.9c0,0,88.6,-22.9,143.6,-88.6c0,0,55,-67.3,55,-160.5c0,0,0,-113,-84,-197C742.5,85.6,658.5,0,453.8,0Z" 
	id="f0_fw"
	transform="scale(0.001,-0.001)" />

	<path d="M340.7,-19.8c0,0,-116.1,0,-201.7,96.2c0,0,-87.1,97.8,-87.1,264.3c0,0,0,160.4,94.8,261.2c0,0,96.2,100.9,230.7,100.9c0,0,100.8,0,165,-53.5c0,0,65.7,-53.5,65.7,-110c0,0,0,-29,-18.4,-45.8c0,0,-18.3,-18.4,-50.4,-18.4c0,0,-44.3,0,-67.2,29.1c0,0,-12.2,15.2,-16.8,58c0,0,-4.6,44.3,-30.6,68.8c0,0,-25.9,21.4,-71.8,21.4c0,0,-74.8,0,-120.7,-55c0,0,-59.6,-73.4,-59.6,-192.5c0,0,0,-122.3,59.6,-215.5c0,0,59.6,-94.7,162,-94.7c0,0,73.3,0,131.4,50.4c0,0,41.2,33.7,79.4,123.8l22.9,-10.7c0,0,-27.5,-134.4,-108.5,-206.3c0,0,-80.9,-71.7,-178.7,-71.7Z" 
	id="f0_h8"
	transform="scale(0.001,-0.001)" />

	<path d="M158.9,0l0,27.5c0,0,70.3,1.5,90.1,22.9c0,0,21.4,21.4,21.4,108.5l0,475.1l-61.1,0c0,0,-64.2,0,-87.1,-7.6c0,0,-22.9,-7.6,-44.3,-36.7c0,0,-21.4,-30.5,-36.6,-91.6l-33.7,0L36.7,682.9l591.2,0l29,-184.8l-33.6,0c0,0,-9.1,55,-29,85.5c0,0,-21.4,30.6,-47.4,39.7c0,0,-27.5,10.7,-93.1,10.7l-59.6,0l0,-475.1c0,0,0,-74.9,9.1,-94.7c0,0,9.2,-21.4,30.6,-27.5c0,0,21.4,-7.7,96.2,-9.2L530.1,0Z" 
	id="f0_h9"
	transform="scale(0.001,-0.001)" />

	<path d="M33.6,0l0,27.5c0,0,65.7,0,84,22.9c0,0,19.9,24.5,19.9,108.5l0,363.6c0,0,0,79.4,-7.6,93.2c0,0,-9.2,15.3,-26,26c0,0,-16.8,12.2,-70.3,12.2l0,29l342.2,0l0,-29c0,0,-62.6,0,-76.4,-9.2c0,0,-15.2,-9.1,-27.5,-21.4c0,0,-12.2,-13.7,-12.2,-100.8l0,-134.4c0,0,18.4,-1.6,24.5,-1.6c0,0,44.3,0,84,26c0,0,41.2,26,71.8,108.5c0,0,29,79.4,47.4,106.9c0,0,19.8,27.5,53.4,44.3c0,0,33.6,18.4,71.8,18.4c0,0,39.8,0,62.7,-18.4c0,0,24.4,-19.8,24.4,-51.9c0,0,0,-26,-16.8,-44.3c0,0,-16.8,-18.4,-47.3,-18.4c0,0,-16.8,0,-41.3,9.2c0,0,-30.5,10.7,-47.4,10.7c0,0,-35.1,0,-56.5,-58.1c0,0,-26,-68.7,-36.6,-87c0,0,-12.3,-19.9,-45.9,-53.5c0,0,22.9,-6.1,48.9,-33.6c0,0,27.5,-27.5,102.4,-157.4c0,0,58,-103.9,87.1,-131.4c0,0,30.5,-27.5,85.5,-29L731.8,0L531.7,0c0,0,-94.8,136,-171.1,279.6c0,0,-16.8,32.1,-30.6,47.3c0,0,-15.3,16.9,-41.2,16.9c0,0,-9.2,0,-29.1,-1.6l0,-183.3c0,0,0,-73.3,9.2,-93.2c0,0,9.2,-21.4,30.5,-29c0,0,23,-9.2,76.4,-9.2L375.8,0Z" 
	id="f0_h1"
	transform="scale(0.001,-0.001)" />

	<path d="M285.7,71.8c0,0,56.5,0,148.2,74.9l0,259.7c0,0,-113.1,-44.3,-145.1,-62.6c0,0,-59.6,-33.7,-84.1,-68.8c0,0,-25.9,-36.7,-25.9,-79.4c0,0,0,-53.5,32,-88.7c0,0,32.1,-35.1,74.9,-35.1ZM216.9,-13.7c0,0,-71.8,0,-117.6,47.3c0,0,-45.8,48.9,-45.8,126.8c0,0,0,50.4,22.9,87.1c0,0,30.5,50.4,105.4,94.7c0,0,76.4,45.9,252.1,110l0,26c0,0,0,102.4,-32.1,140.6c0,0,-32.1,38.1,-94.7,38.1c0,0,-47.4,0,-74.9,-24.4c0,0,-27.5,-26,-27.5,-59.6l1.6,-42.8c0,0,0,-33.6,-16.9,-51.9c0,0,-18.3,-19.9,-47.3,-19.9c0,0,-27.5,0,-44.3,19.9c0,0,-18.4,19.9,-18.4,53.5c0,0,0,64.1,65.7,117.6c0,0,65.7,53.5,184.9,53.5c0,0,90.1,0,148.2,-30.6c0,0,44.3,-22.9,65.7,-71.8c0,0,13.7,-32.1,13.7,-131.4l0,-232.2c0,0,0,-97.8,3.1,-119.2c0,0,4.6,-22.9,12.2,-30.5c0,0,9.2,-7.7,19.9,-7.7c0,0,12.2,0,21.4,6.2c0,0,15.2,9.1,59.6,53.4l0,-41.2c0,0,-82.5,-109.9,-158.9,-109.9c0,0,-36.7,0,-58.1,24.3c0,0,-21.4,24.5,-22.9,85.6c0,0,-105.4,-81,-131.4,-94.7c0,0,-41.2,-16.8,-85.6,-16.8Z" 
	id="f0_gr"
	transform="scale(0.001,-0.001)" />

	<path d="M271.9,-19.8c-148.1,0,-252,149.7,-252,149.7l24.4,15.2C128.3,24.4,256.7,24.4,256.7,24.4c88.6,0,148.2,65.7,148.2,65.7c58,64.2,58,212.4,58,212.4l0,36.7l-227.6,0l0,47.3l221.5,0C443.1,510.3,392.6,582.1,392.6,582.1c-50.4,71.8,-126.8,71.8,-126.8,71.8c-70.2,0,-116.1,-53.5,-116.1,-53.5C103.9,548.5,94.7,470.6,94.7,470.6l-29,0l0,212.3l29,0c15.3,-15.3,32.1,-15.3,32.1,-15.3c10.7,0,53.5,13.8,53.5,13.8c68.7,21.4,114.6,21.4,114.6,21.4C412.5,702.8,508.8,605,508.8,605c94.7,-97.8,94.7,-255.1,94.7,-255.1C603.5,197.1,510.3,88.6,510.3,88.6C417.1,-19.8,271.9,-19.8,271.9,-19.8Z" 
	id="f0_hk"
	transform="scale(0.001,-0.001)" />

	<path d="M33.6,0l0,27.5c0,0,65.7,0,84,22.9c0,0,19.9,24.5,19.9,108.5l0,363.6c0,0,0,79.4,-7.6,93.2c0,0,-9.2,15.3,-26,26c0,0,-16.8,12.2,-70.3,12.2l0,29l239.9,0L488.9,177.2L701.3,682.9l230.6,0l0,-29c0,0,-50.4,0,-67.2,-9.2c0,0,-16.8,-10.7,-25.9,-25.9c0,0,-10.7,-15.3,-10.7,-96.3l0,-363.6c0,0,0,-70.3,7.6,-90.1c0,0,7.6,-21.4,29,-30.6c0,0,22.9,-10.7,67.2,-10.7L931.9,0l-330,0l0,27.5c0,0,61.2,0,81,21.4c0,0,21.4,22.9,21.4,110l0,412.5L462.9,0l-26,0L191,571.4l0,-412.5c0,0,0,-70.3,7.6,-90.1c0,0,7.7,-21.4,29,-30.6c0,0,21.4,-10.7,67.3,-10.7L294.9,0Z" 
	id="f0_h3"
	transform="scale(0.001,-0.001)" />

	<path d="M33.6,0l0,27.5c0,0,65.7,0,84,22.9c0,0,19.9,24.5,19.9,108.5l0,363.6c0,0,0,79.4,-7.6,93.2c0,0,-9.2,15.3,-26,26c0,0,-16.8,12.2,-70.3,12.2l0,29l330,0l0,-29c0,0,-48.9,0,-65.7,-9.2c0,0,-18.3,-10.7,-27.5,-25.9c0,0,-10.7,-15.3,-10.7,-96.3l0,-313.2L556.1,551.5c0,0,-1.5,56.6,-21.4,79.5c0,0,-21.4,22.9,-70.3,22.9l0,29l317.8,0l0,-29c0,0,-50.4,0,-67.2,-9.2c0,0,-16.8,-10.7,-26,-25.9c0,0,-10.7,-15.3,-10.7,-96.3l0,-363.6c0,0,0,-77.9,7.7,-93.2c0,0,9.1,-15.3,25.9,-26c0,0,18.4,-12.2,70.3,-12.2L782.2,0l-330,0l0,27.5c0,0,61.1,0,82.5,21.4c0,0,21.4,22.9,21.4,110l0,322.4L259.7,139c0,0,1.6,-64.1,18.4,-87.1c0,0,16.8,-24.4,71.8,-24.4L349.9,0Z" 
	id="f0_gz"
	transform="scale(0.001,-0.001)" />

	<path d="M386.5,0l0,27.5c0,0,59.6,1.5,77.9,6.1c0,0,18.4,6.1,30.6,29c0,0,12.2,24.5,12.2,96.3l0,168c0,0,-110,-56.5,-232.2,-56.5c0,0,-65.7,0,-102.4,16.8c0,0,-36.6,16.8,-45.8,38.2c0,0,-10.7,22.9,-10.7,71.8l0,125.3c0,0,0,65.7,-6.1,87.1c0,0,-6.1,21.4,-26,32.1c0,0,-21.4,12.2,-62.6,12.2l0,29l322.4,0l0,-29c0,0,-50.5,0,-67.3,-9.2c0,0,-18.3,-10.7,-27.5,-25.9c0,0,-9.1,-15.3,-9.1,-96.3l0,-84c0,0,0,-50.4,6.1,-67.2c0,0,7.6,-16.9,33.6,-27.5c0,0,26,-12.3,71.8,-12.3c0,0,82.5,0,155.8,44.3l0,146.7c0,0,0,70.3,-7.6,90.1c0,0,-7.7,21.4,-29,30.6c0,0,-23,10.7,-67.3,10.7l0,29l330,0l0,-29c0,0,-50.4,0,-67.2,-9.2c0,0,-16.8,-10.7,-26,-25.9c0,0,-9.1,-15.3,-9.1,-96.3l0,-363.6c0,0,0,-70.3,6.1,-90.1c0,0,7.6,-21.4,29,-30.6c0,0,22.9,-10.7,67.2,-10.7L733.3,0Z" 
	id="f0_he"
	transform="scale(0.001,-0.001)" />

	<path d="M33.6,0l0,27.5c0,0,65.7,0,84,22.9c0,0,19.9,24.5,19.9,108.5l0,363.6c0,0,0,79.4,-7.6,93.2c0,0,-9.2,15.3,-26,26c0,0,-16.8,12.2,-70.3,12.2l0,29l330,0l0,-29c0,0,-48.9,0,-65.7,-9.2c0,0,-18.3,-10.7,-27.5,-25.9c0,0,-10.7,-15.3,-10.7,-96.3l0,-313.2L556.1,551.5c0,0,-1.5,56.6,-21.4,79.5c0,0,-21.4,22.9,-70.3,22.9l0,29l317.8,0l0,-29c0,0,-50.4,0,-67.2,-9.2c0,0,-16.8,-10.7,-26,-25.9c0,0,-10.7,-15.3,-10.7,-96.3l0,-363.6c0,0,0,-77.9,7.7,-93.2c0,0,9.1,-15.3,25.9,-26c0,0,18.4,-12.2,70.3,-12.2L782.2,0l-330,0l0,27.5c0,0,61.1,0,82.5,21.4c0,0,21.4,22.9,21.4,110l0,322.4L259.7,139c0,0,1.6,-64.1,18.4,-87.1c0,0,16.8,-24.4,71.8,-24.4L349.9,0ZM407.9,802.1c0,0,-122.2,0,-183.3,44.3c0,0,-61.1,44.3,-61.1,110c0,0,0,26,13.7,41.2c0,0,15.3,16.8,38.2,16.8c0,0,48.9,0,87.1,-91.6c0,0,21.4,-53.5,48.9,-65.7c0,0,29,-13.8,55,-13.8c0,0,47.4,0,70.3,19.9c0,0,24.4,21.4,45.8,73.3c0,0,30.6,77.9,76.4,77.9c0,0,22.9,0,38.2,-15.2c0,0,15.3,-16.8,15.3,-41.3c0,0,0,-58,-74.9,-106.9c0,0,-74.9,-48.9,-169.6,-48.9Z" 
	id="f0_h0"
	transform="scale(0.001,-0.001)" />

	<path d="M33.6,0l0,27.5c0,0,65.7,0,84,22.9c0,0,19.9,24.5,19.9,108.5l0,363.6c0,0,0,79.4,-7.6,93.2c0,0,-9.2,15.3,-26,26c0,0,-16.8,12.2,-70.3,12.2l0,29l748.6,0l0,-29c0,0,-50.4,0,-67.2,-9.2c0,0,-16.8,-10.7,-26,-25.9c0,0,-10.7,-15.3,-10.7,-96.3l0,-363.6c0,0,0,-77.9,7.7,-93.2c0,0,9.1,-15.3,25.9,-26c0,0,18.4,-12.2,70.3,-12.2L782.2,0l-330,0l0,27.5c0,0,61.1,0,82.5,21.4c0,0,21.4,22.9,21.4,110l0,475.1l-296.4,0l0,-475.1c0,0,0,-77.9,7.7,-93.2c0,0,9.1,-15.3,25.9,-26c0,0,18.4,-12.2,70.3,-12.2L363.6,0Z" 
	id="f0_h6"
	transform="scale(0.001,-0.001)" />

	<path d="M754.7,-189.3c0,0,-1.5,88.6,-56.5,139c0,0,-55,50.3,-198.6,50.3L33.6,0l0,27.5c0,0,65.7,0,84,22.9c0,0,19.9,24.5,19.9,108.5l0,363.6c0,0,0,79.4,-7.6,93.2c0,0,-9.2,15.3,-26,26c0,0,-16.8,12.2,-70.3,12.2l0,29l330,0l0,-29c0,0,-48.9,0,-65.7,-9.2c0,0,-18.3,-10.7,-27.5,-25.9c0,0,-10.7,-15.3,-10.7,-96.3l0,-386.5c0,0,0,-64.2,12.2,-76.4c0,0,12.3,-12.2,74.9,-12.2l120.7,0c0,0,68.8,0,77.9,12.2c0,0,10.7,13.7,10.7,82.5l0,380.4c0,0,0,70.3,-7.6,90.1c0,0,-7.7,21.4,-29.1,30.6c0,0,-21.3,10.7,-67.2,10.7l0,29l330,0l0,-29c0,0,-50.4,0,-67.2,-9.2c0,0,-16.8,-10.7,-26,-25.9c0,0,-10.7,-15.3,-10.7,-96.3l0,-351.4c0,0,0,-96.2,16.8,-117.6c0,0,18.4,-22.9,87.1,-26l0,-216.8Z" 
	id="f0_hd"
	transform="scale(0.001,-0.001)" />


</defs>
</svg>